<svg width="148" height="148" viewBox="0 0 148 148" fill="none" xmlns="http://www.w3.org/2000/svg">
<path fillRule="evenodd" clipRule="evenodd" d="M117.493 134.189C117.493 136.239 117.381 137.954 117.158 139.37C116.934 140.786 116.636 141.941 116.226 142.761C115.853 143.618 115.369 144.215 114.884 144.55C114.362 144.923 113.766 145.109 113.132 145.109H34.9791C34.42 145.109 33.861 144.923 33.3392 144.55C32.8548 144.215 32.4076 143.618 31.9974 142.761C31.5875 141.941 31.2895 140.786 31.0657 139.37C30.842 137.954 30.7304 136.239 30.7304 134.189C30.7304 132.102 30.805 130.351 30.9912 128.897C31.1776 127.481 31.4756 126.363 31.8855 125.468C32.2954 124.611 32.7429 123.978 33.2646 123.568C33.7491 123.158 34.3454 122.971 34.9791 122.971H61.3656V31.0658L38.6687 43.5883C37.0288 44.3711 35.65 44.8926 34.6062 45.079C33.5254 45.2282 32.7056 45.0417 32.072 44.4081C31.4756 43.7745 31.0657 42.731 30.842 41.203C30.6186 39.675 30.5067 37.5134 30.5067 34.7554C30.5067 33.0037 30.544 31.5503 30.6186 30.4322C30.6931 29.3141 30.8796 28.3452 31.1776 27.5624C31.4386 26.7426 31.8485 26.109 32.3703 25.5872C32.8548 25.0655 33.563 24.5437 34.42 23.9474L64.7571 4.30674C65.1297 4.00872 65.5769 3.78498 66.099 3.59883C66.658 3.41238 67.3662 3.26352 68.2606 3.15165C69.1176 3.03978 70.273 2.9652 71.6891 2.9282C73.1055 2.89063 74.9316 2.89062 77.205 2.89062C79.963 2.89062 82.1992 2.92791 83.9136 3.03978C85.628 3.15165 86.9323 3.3378 87.7896 3.59883C88.6843 3.85956 89.2433 4.19516 89.5414 4.64234C89.8394 5.08952 89.9885 5.61128 89.9885 6.2822V122.972H113.095C113.766 122.972 114.362 123.158 114.922 123.568C115.481 123.978 115.928 124.611 116.338 125.469C116.748 126.363 117.046 127.481 117.232 128.898C117.418 130.351 117.493 132.102 117.493 134.189V134.189Z" fill="#FFD200"/>
</svg>
