<svg width="148" height="148" viewBox="0 0 148 148" fill="none" xmlns="http://www.w3.org/2000/svg">
<path fillRule="evenodd" clipRule="evenodd" d="M120.89 133.534C120.89 135.635 120.816 137.442 120.632 138.916C120.447 140.391 120.153 141.57 119.821 142.529C119.452 143.45 118.973 144.114 118.42 144.52C117.83 144.925 117.167 145.109 116.466 145.109H36.0675C34.4823 145.109 33.1185 144.962 31.9756 144.667C30.8329 144.372 29.8744 143.819 29.174 143.008C28.4369 142.16 27.9206 140.98 27.5888 139.395C27.2569 137.81 27.1095 135.746 27.1095 133.239C27.1095 130.843 27.2202 128.816 27.4413 127.12C27.6625 125.425 28.031 123.913 28.621 122.586C29.2107 121.259 29.9481 119.968 30.8329 118.715C31.7544 117.425 32.8971 116.061 34.3719 114.55L58.591 88.6717C63.4201 83.6214 67.3276 79.0505 70.2766 74.8848C73.2257 70.7561 75.548 66.9593 77.2069 63.531C78.8656 60.1027 79.9715 56.9693 80.5982 54.094C81.2249 51.2187 81.5197 48.4538 81.5197 45.8734C81.5197 43.514 81.1509 41.2654 80.3768 39.1275C79.6397 37.0263 78.4967 35.183 77.0222 33.598C75.5477 32.0128 73.7046 30.7964 71.4557 29.8749C69.2438 28.9901 66.6267 28.5478 63.5669 28.5478C59.3275 28.5478 55.5674 29.1008 52.2868 30.1697C49.006 31.2387 46.1307 32.4554 43.6609 33.7824C41.1542 35.1465 39.0897 36.3629 37.4311 37.4689C35.7721 38.6115 34.482 39.1645 33.5602 39.1645C32.8968 39.1645 32.3438 38.9434 31.8646 38.5008C31.3853 38.0953 31.0168 37.3581 30.7219 36.3626C30.4638 35.3307 30.2059 34.0033 30.0215 32.2709C29.8371 30.5753 29.7634 28.5108 29.7634 26.0781C29.7634 24.4191 29.8004 23.0183 29.9111 21.8757C30.0215 20.7697 30.2059 19.8112 30.4271 18.9634C30.6115 18.1523 30.9063 17.4151 31.2749 16.7885C31.6434 16.1985 32.2701 15.4614 33.1547 14.5766C34.0762 13.7287 35.7351 12.6228 38.1312 11.2957C40.5642 9.93161 43.5132 8.64152 47.0522 7.38815C50.5912 6.13477 54.4617 5.06582 58.7379 4.181C62.9772 3.33318 67.4008 2.89062 72.0087 2.89062C79.3078 2.89062 85.6481 3.81216 91.1039 5.65551C96.5229 7.49857 101.057 10.0423 104.67 13.3229C108.282 16.6038 110.936 20.4743 112.706 24.9718C114.475 29.4691 115.36 34.2981 115.36 39.4961C115.36 44.0303 114.918 48.4908 114.07 52.8776C113.185 57.3011 111.379 62.0195 108.651 67.1067C105.923 72.1569 102.052 77.7971 97.0756 83.9533C92.0991 90.1095 85.5004 97.2609 77.28 105.408L60.9498 122.107H116.024C116.761 122.107 117.425 122.328 118.015 122.771C118.641 123.176 119.157 123.84 119.6 124.761C120.042 125.646 120.337 126.826 120.558 128.3C120.78 129.774 120.89 131.543 120.89 133.534V133.534Z" fill="#FFD200"/>
</svg>
