<svg width="148" height="148" viewBox="0 0 148 148" fill="none" xmlns="http://www.w3.org/2000/svg">
<path fillRule="evenodd" clipRule="evenodd" d="M119.884 102.523C119.884 109.373 118.579 115.462 115.97 120.754C113.324 126.045 109.7 130.503 105.025 134.091C100.349 137.68 94.7677 140.434 88.28 142.319C81.7561 144.167 74.6527 145.11 66.9327 145.11C62.2936 145.11 57.9082 144.784 53.7763 144.095C49.6809 143.406 46.0566 142.572 42.9032 141.558C39.7502 140.579 37.1769 139.528 35.111 138.441C33.0812 137.39 31.7402 136.556 31.0878 136.012C30.4354 135.432 29.9642 134.816 29.6382 134.091C29.3482 133.403 29.0583 132.569 28.8045 131.627C28.5507 130.648 28.3695 129.452 28.2608 128.003C28.1521 126.589 28.116 124.813 28.116 122.784C28.116 119.413 28.4059 117.057 28.9496 115.752C29.5295 114.448 30.3993 113.795 31.5229 113.795C32.2114 113.795 33.444 114.266 35.1835 115.209C36.9234 116.151 39.1342 117.166 41.8161 118.253C44.498 119.34 47.6514 120.355 51.2757 121.297C54.8999 122.24 58.9954 122.711 63.5984 122.711C67.4765 122.711 70.9195 122.24 73.8916 121.334C76.8635 120.428 79.4006 119.123 81.5026 117.492C83.5686 115.825 85.1269 113.832 86.1779 111.476C87.1928 109.12 87.7001 106.474 87.7001 103.611C87.7001 100.422 87.0841 97.5946 85.8519 95.0578C84.5835 92.5207 82.7713 90.3461 80.3068 88.5701C77.8784 86.758 74.7978 85.3809 71.0646 84.4021C67.3678 83.4236 62.9824 82.916 57.9443 82.916H46.0563C45.114 82.916 44.3529 82.8074 43.7005 82.5536C43.0842 82.2998 42.5408 81.7925 42.1057 80.9949C41.7071 80.2338 41.381 79.1464 41.1998 77.7693C41.0186 76.3919 40.946 74.6159 40.946 72.4416C40.946 70.3756 41.0186 68.7086 41.1998 67.4038C41.381 66.099 41.671 65.0841 42.0696 64.3955C42.4321 63.6706 42.9394 63.1632 43.5192 62.9094C44.1355 62.6195 44.8602 62.4744 45.6939 62.4744H57.6541C61.7495 62.4744 65.3741 62.0032 68.5272 61.0248C71.7167 60.0824 74.3625 58.7053 76.5368 56.9293C78.6753 55.1533 80.3062 53.0151 81.4298 50.478C82.5534 47.9771 83.1332 45.1864 83.1332 42.1059C83.1332 39.7862 82.7346 37.5393 81.9735 35.4734C81.1763 33.3713 80.0527 31.5592 78.5305 30.037C77.0083 28.5148 75.0513 27.2825 72.6591 26.4127C70.2671 25.5068 67.44 25.0717 64.1782 25.0717C60.5176 25.0717 57.0745 25.6155 53.8128 26.7388C50.551 27.8262 47.6514 29.0221 45.0782 30.3269C42.5049 31.6679 40.3303 32.9001 38.5182 34.0237C36.706 35.1473 35.4012 35.7272 34.5314 35.7272C33.9877 35.7272 33.4804 35.6185 33.0818 35.3647C32.647 35.1109 32.2845 34.64 31.9946 33.915C31.7408 33.1904 31.5234 32.1755 31.3783 30.8345C31.2335 29.4571 31.161 27.7175 31.161 25.5793C31.161 23.8033 31.1974 22.3537 31.2696 21.1576C31.3422 19.9978 31.487 19.0194 31.7047 18.2218C31.9221 17.4607 32.1759 16.7722 32.5019 16.1923C32.7918 15.6486 33.3356 15.0326 34.0241 14.3441C34.7488 13.6555 36.1987 12.6767 38.3734 11.3358C40.5841 9.99482 43.3386 8.69 46.6368 7.42159C49.9711 6.15289 53.813 5.10186 58.162 4.19594C62.5112 3.32615 67.2229 2.89111 72.3333 2.89111C78.9658 2.89111 84.8373 3.68835 89.9837 5.24697C95.0941 6.8056 99.4069 9.05248 102.923 11.9882C106.402 14.9239 109.084 18.5482 110.86 22.8249C112.672 27.1377 113.578 31.9581 113.578 37.3583C113.578 41.5263 113.034 45.4405 111.983 49.0287C110.932 52.6529 109.374 55.8786 107.308 58.7056C105.279 61.5688 102.705 63.9608 99.6245 65.9541C96.5437 67.9475 92.992 69.4336 88.9691 70.4121V70.7381C93.7895 71.318 98.1023 72.5141 101.944 74.3985C105.75 76.2471 109.012 78.6026 111.658 81.4297C114.303 84.2567 116.333 87.4459 117.746 91.0344C119.159 94.5861 119.884 98.4277 119.884 102.523V102.523Z" fill="#FFD200"/>
</svg>
