<svg width="148" height="148" viewBox="0 0 148 148" fill="none" xmlns="http://www.w3.org/2000/svg">
<path fillRule="evenodd" clipRule="evenodd" d="M126.273 103.871C126.273 107.586 125.901 110.409 125.122 112.341C124.378 114.273 123.338 115.239 122.038 115.239H109.555V140.763C109.555 141.469 109.332 142.1 108.886 142.658C108.477 143.215 107.697 143.661 106.62 144.032C105.505 144.366 104.093 144.664 102.347 144.85C100.601 145.035 98.3348 145.11 95.5855 145.11C92.9478 145.11 90.7558 145.036 88.9723 144.85C87.1891 144.664 85.74 144.367 84.6997 144.032C83.6596 143.661 82.9165 143.215 82.5077 142.658C82.099 142.1 81.9134 141.469 81.9134 140.763V115.239H28.0426C27.0395 115.239 26.1108 115.128 25.3306 114.868C24.5131 114.608 23.8445 114.013 23.2872 113.121C22.7672 112.193 22.3584 110.892 22.0983 109.183C21.8381 107.474 21.7268 105.208 21.7268 102.347C21.7268 100.007 21.7638 98.0003 21.8754 96.2913C21.9867 94.5824 22.1726 93.022 22.4327 91.6473C22.6929 90.2728 23.0643 88.9723 23.5101 87.7091C23.9931 86.4829 24.5874 85.1827 25.3306 83.8079L69.0588 6.68023C69.4302 6.04863 70.0618 5.49132 70.9163 5.0083C71.8081 4.52527 72.997 4.15383 74.5573 3.81938C76.1177 3.48494 78.1241 3.26207 80.5016 3.11349C82.8795 2.96491 85.8146 2.89062 89.1952 2.89062C92.9105 2.89062 96.1055 2.96491 98.7062 3.15049C101.344 3.33636 103.462 3.63352 105.022 4.04225C106.583 4.4137 107.734 4.93401 108.477 5.49132C109.183 6.08563 109.555 6.75452 109.555 7.57199V92.2789H122.038C123.19 92.2789 124.193 93.1706 125.01 94.9539C125.864 96.7374 126.273 99.7095 126.273 103.871ZM81.9134 27.6341H81.6905L44.6868 92.2789H81.9134V27.6341Z" fill="#FFD200"/>
</svg>
