<svg width="148" height="148" viewBox="0 0 148 148" fill="none" xmlns="http://www.w3.org/2000/svg">
<path fillRule="evenodd" clipRule="evenodd" d="M119.784 97.2609C119.784 104.818 118.457 111.564 115.84 117.499C113.223 123.434 109.5 128.447 104.707 132.539C99.9154 136.594 94.1645 139.69 87.4554 141.866C80.7092 144.04 73.2627 145.109 65.0423 145.109C60.7292 145.109 56.6005 144.851 52.73 144.299C48.8225 143.746 45.3575 143.045 42.2607 142.234C39.1643 141.386 36.6208 140.575 34.6301 139.727C32.6763 138.88 31.3492 138.216 30.7595 137.663C30.1328 137.11 29.6906 136.52 29.3957 135.893C29.1006 135.23 28.8794 134.456 28.6953 133.571C28.5109 132.65 28.4005 131.507 28.3268 130.143C28.2531 128.779 28.2163 127.157 28.2163 125.277C28.2163 123.25 28.29 121.554 28.4375 120.153C28.5849 118.752 28.806 117.609 29.1379 116.762C29.4697 115.877 29.8383 115.25 30.2805 114.919C30.6861 114.55 31.2021 114.366 31.792 114.366C32.4924 114.366 33.5984 114.771 35.0729 115.619C36.5474 116.43 38.5012 117.352 40.8972 118.347C43.3303 119.342 46.2793 120.264 49.7076 121.075C53.1728 121.923 57.3382 122.328 62.1306 122.328C66.333 122.328 70.1298 121.886 73.5581 121.038C76.9867 120.153 79.8617 118.789 82.258 116.872C84.6173 114.956 86.4604 112.596 87.7508 109.684C89.0409 106.809 89.7046 103.38 89.7046 99.3253C89.7046 95.8971 89.1516 92.8003 88.0823 90.1095C87.0134 87.4183 85.3177 85.133 82.9951 83.2529C80.7095 81.3728 77.7238 79.972 74.0374 79.0505C70.351 78.129 65.8904 77.6497 60.6558 77.6497C56.4534 77.6497 52.6566 77.8708 49.265 78.3134C45.8367 78.7189 42.5926 78.9401 39.5698 78.9401C37.5057 78.9401 35.9941 78.4241 35.1093 77.3919C34.1878 76.3229 33.7455 74.4058 33.7455 71.6043V10.9636C33.7455 8.08826 34.2985 6.02377 35.4045 4.77069C36.5468 3.51731 38.3165 2.89062 40.7492 2.89062H106.956C107.582 2.89062 108.209 3.11176 108.799 3.55402C109.352 3.95958 109.868 4.65998 110.237 5.58151C110.642 6.54004 110.937 7.75641 111.121 9.34163C111.306 10.8899 111.38 12.7332 111.38 14.9081C111.38 19.2212 111.011 22.3544 110.237 24.3081C109.5 26.2619 108.394 27.2204 106.956 27.2204H57.1902V57.0797C59.697 56.7849 62.2037 56.6005 64.7102 56.5268C67.1802 56.453 69.7974 56.4163 72.5253 56.4163C80.1192 56.4163 86.8284 57.3011 92.6897 59.0705C98.588 60.8399 103.528 63.4203 107.509 66.8486C111.527 70.2769 114.55 74.5163 116.651 79.6035C118.752 84.6537 119.784 90.5517 119.784 97.2609V97.2609Z" fill="#FFD200"/>
</svg>
