<svg width="148" height="148" viewBox="0 0 148 148" fill="none" xmlns="http://www.w3.org/2000/svg">
<path fillRule="evenodd" clipRule="evenodd" d="M121.406 96.8333C121.406 103.756 120.355 110.171 118.217 116.079C116.078 121.986 112.961 127.096 108.866 131.373C104.77 135.65 99.6962 139.021 93.68 141.449C87.6273 143.877 80.7048 145.109 72.84 145.109C66.461 145.109 60.8797 144.384 56.1319 142.935C51.384 141.485 47.2886 139.383 43.8092 136.665C40.3297 133.946 37.503 130.612 35.2919 126.734C33.1173 122.856 31.3413 118.434 30.0365 113.578C28.7317 108.685 27.8257 103.357 27.3546 97.6306C26.8473 91.9042 26.5938 85.8154 26.5938 79.3641C26.5938 74 26.8475 68.3462 27.391 62.4748C27.9347 56.6034 28.9496 50.8409 30.4715 45.1504C31.9937 39.4963 34.1322 34.0964 36.8867 28.9496C39.6412 23.8393 43.2293 19.3452 47.5785 15.4672C51.9278 11.6252 57.1829 8.54469 63.3807 6.29752C69.5782 4.01421 76.9357 2.89062 85.4165 2.89062C88.0984 2.89062 90.8168 3.03545 93.5351 3.3618C96.2535 3.68786 98.7903 4.08677 101.146 4.59407C103.466 5.06524 105.459 5.6451 107.09 6.29752C108.721 6.91351 109.772 7.45723 110.316 7.92841C110.86 8.39958 111.258 8.90688 111.548 9.45061C111.838 10.0305 112.055 10.6468 112.237 11.3353C112.418 11.9877 112.527 12.8214 112.599 13.7998C112.672 14.8147 112.708 16.0106 112.708 17.4241C112.708 19.5987 112.672 21.4109 112.563 22.8608C112.454 24.3104 112.237 25.4705 111.947 26.2677C111.693 27.1013 111.294 27.6812 110.787 28.0073C110.316 28.3697 109.7 28.551 108.975 28.551C108.141 28.551 107.054 28.3336 105.713 27.8624C104.372 27.3913 102.741 26.884 100.82 26.3402C98.899 25.7604 96.6521 25.2531 94.0789 24.8545C91.5056 24.4194 88.4974 24.202 85.0905 24.202C79.3641 24.202 74.5437 25.2531 70.557 27.3916C66.6064 29.53 63.3807 32.4293 60.9162 36.09C58.4152 39.7507 56.6031 43.991 55.4798 48.8114C54.3562 53.6318 53.7399 58.7421 53.6676 64.1421C55.2263 63.1272 57.0384 62.1487 59.0679 61.1702C61.0613 60.1556 63.2723 59.322 65.6282 58.597C68.0202 57.9085 70.5934 57.3283 73.3479 56.8574C76.1024 56.3863 79.0742 56.1689 82.1912 56.1689C89.1136 56.1689 95.0576 57.1112 100.023 59.0321C104.988 60.9529 109.047 63.6712 112.201 67.2229C115.354 70.7385 117.674 75.0152 119.159 80.053C120.645 85.0543 121.406 90.672 121.406 96.8333V96.8333ZM94.0063 99.4791C94.0063 95.891 93.6802 92.7379 93.064 90.0196C92.4115 87.3012 91.3966 85.0182 89.947 83.1335C88.5335 81.2849 86.6488 79.8714 84.3294 78.893C81.9735 77.9506 79.1465 77.4794 75.8121 77.4794C73.8188 77.4794 71.8618 77.6607 69.9407 78.0232C68.056 78.3495 66.1713 78.8565 64.3231 79.4728C62.4748 80.1252 60.6988 80.8863 58.9951 81.7561C57.2916 82.6259 55.6971 83.5683 54.2111 84.547C54.2111 92.1219 54.6458 98.392 55.4795 103.43C56.3493 108.468 57.5815 112.49 59.2488 115.426C60.9162 118.398 63.0182 120.5 65.5553 121.733C68.056 122.965 70.9917 123.581 74.3264 123.581C77.5881 123.581 80.4513 122.965 82.8797 121.769C85.3443 120.573 87.3738 118.906 89.0049 116.695C90.6358 114.52 91.8681 111.983 92.7379 109.047C93.5716 106.112 94.0063 102.922 94.0063 99.4791V99.4791Z" fill="#FFD200"/>
</svg>
