<svg width="24" height="24" viewBox="0 0 24 24" fill="none" xmlns="http://www.w3.org/2000/svg">
<path d="M12 23C18.0751 23 23 18.0751 23 12C23 5.92487 18.0751 1 12 1C5.92487 1 1 5.92487 1 12C1 18.0751 5.92487 23 12 23Z" fill="#FFD200"/>
<path d="M12 24C18.617 24 24 18.617 24 12C24 11.448 23.552 11 23 11C22.448 11 22 11.448 22 12C22 17.514 17.514 22 12 22C6.486 22 2 17.514 2 12C2 6.486 6.486 2 12 2C14.6845 2 17.204 3.0495 19.095 4.9545C19.484 5.3465 20.117 5.349 20.5095 4.96C20.9015 4.571 20.904 3.938 20.5145 3.546C18.2455 1.2595 15.2215 0 12 0C5.383 0 0 5.383 0 12C0 18.617 5.383 24 12 24Z" fill="#333333"/>
<path d="M12 17C12.552 17 13 16.552 13 16V13H16C16.552 13 17 12.552 17 12C17 11.448 16.552 11 16 11H13V8C13 7.448 12.552 7 12 7C11.448 7 11 7.448 11 8V11H8C7.448 11 7 11.448 7 12C7 12.552 7.448 13 8 13H11V16C11 16.552 11.448 17 12 17Z" fill="#333333"/>
</svg>
