<svg width="16" height="16" viewBox="0 0 16 16" fill="none" xmlns="http://www.w3.org/2000/svg">
<path d="M2.13331 8.53333C1.69149 8.53333 1.33331 8.8915 1.33331 9.33332C1.33331 9.77515 1.69149 10.1333 2.13331 10.1333C2.57514 10.1333 2.93331 9.77515 2.93331 9.33332C2.93331 8.8915 2.57514 8.53333 2.13331 8.53333ZM2.13331 9.59999C1.98604 9.59999 1.86665 9.4806 1.86665 9.33332C1.86665 9.18605 1.98604 9.06666 2.13331 9.06666C2.28059 9.06666 2.39998 9.18605 2.39998 9.33332C2.39998 9.4806 2.28059 9.59999 2.13331 9.59999Z" fill="#333333"/>
<path d="M13.8667 8.53333C13.4249 8.53333 13.0667 8.8915 13.0667 9.33332C13.0667 9.77515 13.4249 10.1333 13.8667 10.1333C14.3085 10.1333 14.6667 9.77515 14.6667 9.33332C14.6667 8.8915 14.3085 8.53333 13.8667 8.53333ZM13.8667 9.59999C13.7194 9.59999 13.6 9.4806 13.6 9.33332C13.6 9.18605 13.7194 9.06666 13.8667 9.06666C14.014 9.06666 14.1333 9.18605 14.1333 9.33332C14.1333 9.4806 14.014 9.59999 13.8667 9.59999Z" fill="#333333"/>
<path d="M4.23491 7.45626C4.23143 7.52692 4.25617 7.59606 4.30369 7.64847C4.3512 7.70089 4.41759 7.73227 4.48825 7.73573C4.63459 7.74078 4.75842 7.62853 4.76771 7.48239C4.80289 6.50678 4.56469 5.54075 4.07998 4.69333C3.65865 3.92159 3.66878 3.22879 3.85678 2.91119C3.90318 2.83199 3.99998 2.66666 4.43731 2.66666C5.41484 2.69363 6.37716 2.42038 7.19465 1.88373C7.66503 1.50524 8.33546 1.50524 8.80585 1.88373C9.62316 2.42034 10.5853 2.69359 11.5626 2.66666C11.9992 2.66666 12.096 2.83199 12.144 2.91173C12.3306 3.22906 12.3418 3.92186 11.9208 4.69333C11.4358 5.54066 11.1973 6.5067 11.2322 7.48239C11.2392 7.62454 11.3566 7.73616 11.4989 7.73599H11.5122C11.5829 7.73254 11.6493 7.70116 11.6968 7.64874C11.7443 7.59633 11.7691 7.52718 11.7656 7.45653C11.7358 6.57917 11.9518 5.71095 12.3893 4.94986C12.9493 3.92453 12.8544 3.06533 12.6026 2.64133C12.3806 2.28821 11.9777 2.09139 11.5626 2.13333C10.683 2.16048 9.81649 1.91414 9.08265 1.42826C8.44146 0.94648 7.55903 0.94648 6.91785 1.42826C6.1839 1.91433 5.3172 2.16068 4.43731 2.13333C4.02256 2.09099 3.61962 2.28729 3.39731 2.63999C3.14611 3.06426 3.05065 3.92346 3.61065 4.94906C4.04848 5.71022 4.26471 6.57866 4.23491 7.45626Z" fill="#333333"/>
<path d="M13.8667 7.46668C13.5132 7.46682 13.1672 7.56775 12.8691 7.75761C12.7526 6.96248 12.9136 6.1515 13.3248 5.46108C13.9725 4.27388 14.0475 2.98375 13.5197 2.09468C13.1046 1.41974 12.354 1.02545 11.5627 1.06668C10.8774 1.09419 10.2015 0.900666 9.63465 0.514679C8.6529 -0.171539 7.34707 -0.171539 6.36532 0.514679C5.79847 0.900666 5.12255 1.09419 4.43732 1.06668C3.64591 1.02535 2.89515 1.41965 2.47998 2.09468C1.95225 2.98375 2.02665 4.27388 2.67492 5.46108C3.08624 6.15176 3.24718 6.96302 3.13065 7.75841C2.55645 7.39276 1.82855 7.36936 1.23205 7.69738C0.635557 8.02539 0.26543 8.65261 0.26665 9.33335C0.267964 9.92635 0.549701 10.4838 1.02638 10.8365C1.25115 11.0019 1.51043 11.1142 1.78478 11.1651C1.64611 11.54 1.58541 11.9392 1.60638 12.3384C1.6235 12.6594 1.746 12.9658 1.95492 13.2101C2.08534 13.3437 2.23543 13.4566 2.39998 13.5448V14.0333L2.01412 14.2904C1.67197 14.5188 1.51971 14.9443 1.63925 15.3379C1.75879 15.7315 2.12195 16.0005 2.53332 16C2.71778 15.9993 2.89803 15.9448 3.05198 15.8432L3.85198 15.3099C4.11152 15.1368 4.26718 14.8453 4.26665 14.5333V13.9467C5.51998 14.0645 6.86852 14.1333 7.99998 14.1333C9.13145 14.1333 10.4824 14.0656 11.7333 13.9467V14.5333C11.7328 14.8453 11.8885 15.1368 12.148 15.3099L12.9504 15.8448C13.1038 15.9455 13.2832 15.9995 13.4667 16C13.8781 16.0004 14.2412 15.7313 14.3607 15.3376C14.4801 14.9439 14.3276 14.5184 13.9853 14.2901L13.6 14.0333V13.5445C13.7644 13.4562 13.9144 13.3433 14.0448 13.2096C14.2541 12.9648 14.3768 12.6577 14.3939 12.336C14.4145 11.9375 14.3537 11.539 14.2152 11.1648C14.4895 11.1139 14.7487 11.0017 14.9736 10.8365C15.6231 10.3584 15.892 9.51708 15.6403 8.75081C15.3886 7.98453 14.6732 7.46659 13.8667 7.46668ZM3.99998 9.33335C3.99977 9.26285 3.9955 9.19242 3.98718 9.12241C5.54958 8.28081 7.97492 8.26668 7.99998 8.26668C8.02505 8.26668 10.4485 8.28081 12.0109 9.12161C12.0041 9.18548 12.0006 9.24965 12.0005 9.31388C11.9721 9.85741 12.0181 10.4023 12.1373 10.9333H3.86292C3.98169 10.4088 4.02781 9.87044 3.99998 9.33335ZM3.14345 5.20561C2.59358 4.19815 2.51332 3.08375 2.93892 2.36668C3.25796 1.85345 3.83444 1.55849 4.43732 1.60001C5.22005 1.62925 5.99184 1.40906 6.64132 0.971212C7.45303 0.387415 8.54694 0.387415 9.35865 0.971212C10.0081 1.40906 10.7799 1.62925 11.5627 1.60001C12.1655 1.55849 12.742 1.85345 13.0611 2.36668C13.4877 3.08375 13.4077 4.19815 12.8565 5.20561C12.1459 6.50775 12.2491 7.56881 12.4131 8.16135C12.3068 8.292 12.2187 8.43642 12.1512 8.59068C10.4741 7.74455 8.10665 7.73335 7.99998 7.73335C7.89332 7.73335 5.52318 7.74481 3.84585 8.59228C3.77887 8.43852 3.69151 8.29448 3.58612 8.16401C3.75065 7.57175 3.85492 6.50961 3.14345 5.20561ZM3.55598 14.8661L2.75865 15.3979C2.5736 15.5183 2.3264 15.47 2.20025 15.2888C2.1407 15.201 2.11907 15.0928 2.14025 14.9888C2.16093 14.8846 2.22224 14.7928 2.31065 14.7339L2.81465 14.3979C2.8888 14.3484 2.93333 14.2652 2.93332 14.176V13.7568C3.19531 13.8275 3.46301 13.8751 3.73332 13.8989V14.5333C3.73349 14.6669 3.66696 14.7918 3.55598 14.8661ZM13.6893 14.7328C13.7778 14.7917 13.8393 14.8834 13.86 14.9877C13.8808 15.092 13.8592 15.2002 13.8 15.2885C13.6733 15.4667 13.4296 15.5151 13.2445 15.3987L12.4445 14.8653C12.3336 14.7913 12.2669 14.6667 12.2667 14.5333V13.8989C12.5369 13.875 12.8046 13.8276 13.0667 13.7571V14.176C13.0666 14.2652 13.1112 14.3484 13.1853 14.3979L13.6893 14.7328ZM14.6576 10.4064C14.3052 10.6627 13.8513 10.7344 13.4371 10.5992C13.346 10.5711 13.2469 10.5936 13.177 10.6584C13.1071 10.7231 13.0771 10.8203 13.0982 10.9132C13.1193 11.0061 13.1884 11.0807 13.2795 11.1088C13.4021 11.1459 13.528 11.1712 13.6555 11.1843C13.8049 11.5335 13.8758 11.9113 13.8629 12.2909C13.8562 12.49 13.7858 12.6817 13.6621 12.8379C13.5329 12.9685 13.3787 13.0719 13.2088 13.1419C12.396 13.4989 8.88478 13.6 7.99998 13.6C7.10665 13.6 3.60985 13.5013 2.78985 13.1416C2.62053 13.0717 2.46693 12.9686 2.33812 12.8384C2.21484 12.6828 2.14465 12.4918 2.13785 12.2933C2.12459 11.9132 2.19533 11.5348 2.34505 11.1851C2.47251 11.1719 2.59841 11.1465 2.72105 11.1093C2.86177 11.0658 2.94057 10.9165 2.89705 10.7757C2.85353 10.635 2.70417 10.5562 2.56345 10.5997C2.14923 10.735 1.69529 10.6632 1.34292 10.4069C0.834846 10.0329 0.658527 9.35387 0.920397 8.77985C1.18227 8.20583 1.81063 7.89393 2.42617 8.03244C3.04171 8.17096 3.47591 8.72195 3.46665 9.35281C3.53092 10.2272 3.28638 11.1184 3.06185 11.9635C3.03641 12.0559 3.06252 12.1549 3.13026 12.2227C3.19799 12.2905 3.29692 12.3168 3.38938 12.2915C3.48183 12.2661 3.55359 12.1932 3.57732 12.1003C3.62638 11.9136 3.68158 11.7091 3.74158 11.4667H12.2579C12.3184 11.7115 12.3781 11.9341 12.4221 12.1003C12.4458 12.1932 12.5176 12.2661 12.6101 12.2915C12.7025 12.3168 12.8014 12.2905 12.8692 12.2227C12.9369 12.1549 12.963 12.0559 12.9376 11.9635C12.7099 11.1061 12.4688 10.2235 12.5333 9.33335C12.5333 8.70485 12.9723 8.16171 13.5868 8.02978C14.2013 7.89786 14.8245 8.21297 15.0825 8.78608C15.3405 9.35918 15.1632 10.0346 14.6571 10.4072L14.6576 10.4064Z" fill="#333333"/>
<path d="M4.80002 4.00001C4.9473 4.00001 5.06669 3.88062 5.06669 3.73334C5.06669 3.58607 4.9473 3.46667 4.80002 3.46667C4.65275 3.46667 4.53336 3.58607 4.53336 3.73334C4.53336 3.88062 4.65275 4.00001 4.80002 4.00001Z" fill="#333333"/>
<path d="M6.93334 4.00001C7.08062 4.00001 7.20001 3.88062 7.20001 3.73334C7.20001 3.58607 7.08062 3.46667 6.93334 3.46667C6.78606 3.46667 6.66667 3.58607 6.66667 3.73334C6.66667 3.88062 6.78606 4.00001 6.93334 4.00001Z" fill="#333333"/>
<path d="M9.0667 4.00001C9.21397 4.00001 9.33336 3.88062 9.33336 3.73334C9.33336 3.58607 9.21397 3.46667 9.0667 3.46667C8.91942 3.46667 8.80003 3.58607 8.80003 3.73334C8.80003 3.88062 8.91942 4.00001 9.0667 4.00001Z" fill="#333333"/>
<path d="M5.86667 5.33334C6.01395 5.33334 6.13334 5.21395 6.13334 5.06667C6.13334 4.91939 6.01395 4.8 5.86667 4.8C5.7194 4.8 5.60001 4.91939 5.60001 5.06667C5.60001 5.21395 5.7194 5.33334 5.86667 5.33334Z" fill="#333333"/>
<path d="M7.99999 5.33334C8.14726 5.33334 8.26665 5.21395 8.26665 5.06667C8.26665 4.91939 8.14726 4.8 7.99999 4.8C7.85271 4.8 7.73332 4.91939 7.73332 5.06667C7.73332 5.21395 7.85271 5.33334 7.99999 5.33334Z" fill="#333333"/>
<path d="M10.1333 5.33334C10.2806 5.33334 10.4 5.21395 10.4 5.06667C10.4 4.91939 10.2806 4.8 10.1333 4.8C9.98603 4.8 9.86664 4.91939 9.86664 5.06667C9.86664 5.21395 9.98603 5.33334 10.1333 5.33334Z" fill="#333333"/>
<path d="M11.2 4.00001C11.3473 4.00001 11.4667 3.88062 11.4667 3.73334C11.4667 3.58607 11.3473 3.46667 11.2 3.46667C11.0527 3.46667 10.9333 3.58607 10.9333 3.73334C10.9333 3.88062 11.0527 4.00001 11.2 4.00001Z" fill="#333333"/>
<path d="M4.80002 12.8C4.9473 12.8 5.06669 12.6806 5.06669 12.5333C5.06669 12.3861 4.9473 12.2667 4.80002 12.2667C4.65275 12.2667 4.53336 12.3861 4.53336 12.5333C4.53336 12.6806 4.65275 12.8 4.80002 12.8Z" fill="#333333"/>
<path d="M6.93334 12.8C7.08062 12.8 7.20001 12.6806 7.20001 12.5333C7.20001 12.3861 7.08062 12.2667 6.93334 12.2667C6.78606 12.2667 6.66667 12.3861 6.66667 12.5333C6.66667 12.6806 6.78606 12.8 6.93334 12.8Z" fill="#333333"/>
<path d="M9.0667 12.8C9.21397 12.8 9.33336 12.6806 9.33336 12.5333C9.33336 12.3861 9.21397 12.2667 9.0667 12.2667C8.91942 12.2667 8.80003 12.3861 8.80003 12.5333C8.80003 12.6806 8.91942 12.8 9.0667 12.8Z" fill="#333333"/>
<path d="M11.2 12.8C11.3473 12.8 11.4667 12.6806 11.4667 12.5333C11.4667 12.3861 11.3473 12.2667 11.2 12.2667C11.0527 12.2667 10.9333 12.3861 10.9333 12.5333C10.9333 12.6806 11.0527 12.8 11.2 12.8Z" fill="#333333"/>
<path d="M6.93334 6.66667C7.08062 6.66667 7.20001 6.54727 7.20001 6.4C7.20001 6.25272 7.08062 6.13333 6.93334 6.13333C6.78606 6.13333 6.66667 6.25272 6.66667 6.4C6.66667 6.54727 6.78606 6.66667 6.93334 6.66667Z" fill="#333333"/>
<path d="M9.0667 6.66667C9.21397 6.66667 9.33336 6.54727 9.33336 6.4C9.33336 6.25272 9.21397 6.13333 9.0667 6.13333C8.91942 6.13333 8.80003 6.25272 8.80003 6.4C8.80003 6.54727 8.91942 6.66667 9.0667 6.66667Z" fill="#333333"/>
</svg>
