<svg width="397" height="397" viewBox="0 0 397 397" fill="none" xmlns="http://www.w3.org/2000/svg">
<g clip-path="url(#clip0)">
<path d="M34.7236 169.753C34.7236 186.431 45.3704 201.239 61.588 207.676V223.419C56.5484 225.581 53.0078 230.594 53.0078 236.422V267.732C53.0078 271.001 54.1314 274.005 55.999 276.403C54.1314 278.8 53.0078 281.805 53.0078 285.074V310.122C53.0078 317.92 59.3451 324.264 67.1347 324.264H72.519L73.5173 360.123C73.518 360.154 73.5195 360.186 73.5209 360.218C73.87 367.931 79.7402 373.481 87.4854 373.481C94.3379 373.481 99.8257 368.891 101.04 362.032L109.476 324.264H175.888C178.907 324.264 181.353 321.814 181.353 318.793C181.353 315.771 178.907 313.322 175.888 313.322C163.79 313.322 79.3497 313.322 67.1355 313.322C65.4027 313.322 63.9387 311.857 63.9387 310.122V285.074C63.9387 283.339 65.4027 281.874 67.1355 281.874H310.143C311.875 281.874 313.339 283.339 313.339 285.074V310.122C313.339 311.857 311.875 313.322 310.143 313.322C297.942 313.322 213.486 313.322 201.391 313.322C198.372 313.322 195.926 315.771 195.926 318.793C195.926 321.814 198.372 324.264 201.391 324.264H267.802L276.238 362.032C277.453 368.892 282.939 373.482 289.793 373.481C297.536 373.481 303.408 367.933 303.757 360.218C303.759 360.187 303.76 360.155 303.761 360.123L304.759 324.264H310.143C317.932 324.264 324.27 317.92 324.27 310.122V285.074C324.27 281.805 323.147 278.8 321.279 276.403C323.147 274.005 324.27 271.001 324.27 267.732V264.842C324.27 261.821 321.824 259.371 318.805 259.371C315.786 259.371 313.34 261.821 313.34 264.842V267.732C313.34 269.467 311.876 270.932 310.143 270.932H67.1347C65.4019 270.932 63.938 269.467 63.938 267.732V236.422C63.938 234.698 65.3844 233.243 67.1027 233.225C67.1595 233.224 67.2164 233.224 67.2717 233.221H310.013C310.072 233.224 310.122 233.224 310.174 233.224C311.893 233.243 313.339 234.697 313.339 236.421V239.311C313.339 242.332 315.786 244.782 318.804 244.782C321.823 244.782 324.27 242.332 324.27 239.311V236.421C324.27 230.593 320.729 225.581 315.689 223.418V207.675C331.907 201.238 342.554 186.43 342.554 169.752C342.554 151.161 329.28 135.409 311.1 130.276L318.313 85.4808C321.331 66.7386 308.965 49.2349 290.161 45.6322C278.902 43.4746 269.441 38.1613 262.044 29.8392C254.79 21.6782 245.154 14.8645 233.405 9.58553C204.955 -3.19571 172.322 -3.19498 143.872 9.58553C132.123 14.8638 122.487 21.6782 115.233 29.8392C107.835 38.1613 98.3749 43.4746 87.1152 45.6322C68.3116 49.2349 55.9465 66.7386 58.964 85.4808L66.1765 130.276C47.9981 135.41 34.7236 151.162 34.7236 169.753V169.753ZM98.275 324.264L90.3426 359.777C90.3207 359.876 90.301 359.974 90.285 360.073C89.9068 362.35 88.1908 362.59 87.2041 362.531C86.2219 362.472 84.5627 362.033 84.441 359.762L83.4529 324.264H98.275ZM292.836 359.762C292.714 362.033 291.055 362.472 290.073 362.531C289.08 362.59 287.37 362.35 286.992 360.073C286.976 359.974 286.956 359.876 286.934 359.777L279.002 324.264H293.824L292.836 359.762ZM93.4431 222.28H72.519V205.517C72.519 200.691 70.0954 196.425 66.3813 193.981C66.3813 193.981 66.3813 193.981 66.3806 193.981C61.4342 190.728 58.4809 185.256 58.4809 179.341C58.4809 169.692 66.323 161.842 75.962 161.842C86.9047 161.842 93.4431 170.944 93.4431 179.744V222.28ZM254.012 222.28H123.265V214.193C123.265 209.293 127.246 205.282 132.167 205.282H245.111C250.023 205.282 254.012 209.284 254.012 214.193V222.28ZM254.012 169.753V196.456C251.238 195.056 248.157 194.342 245.111 194.342H132.167C129.041 194.342 125.95 195.102 123.265 196.456V169.753C123.265 154.985 114.614 140.88 100.183 133.538L91.4407 79.2382C91.3758 78.8349 91.6666 78.4585 92.1023 78.3819C110.881 75.0877 127.418 65.9085 139.927 51.8361C144.06 47.1867 149.941 43.1288 157.405 39.7756C177.26 30.856 200.033 30.8582 219.884 39.7807C227.342 43.1339 233.22 47.1903 237.35 51.8361C249.859 65.9092 266.396 75.0885 285.174 78.3819C285.611 78.4585 285.901 78.8349 285.836 79.2382L277.093 133.539C263.187 140.613 254.012 154.431 254.012 169.753V169.753ZM310.896 193.981C307.245 196.381 304.758 200.618 304.758 205.517V222.28H283.834V179.743C283.834 168.537 292.722 161.841 301.315 161.841C310.954 161.841 318.796 169.691 318.796 179.34C318.796 185.255 315.843 190.727 310.896 193.981ZM331.623 169.753C331.623 173.27 330.96 176.676 329.722 179.859C330.048 164.063 317.233 150.9 301.316 150.9C285.385 150.9 272.905 163.569 272.905 179.743V222.281H264.942V214.194V169.753C264.942 158.444 272.086 147.509 284.04 142.36C305.945 132.913 331.623 147.488 331.623 169.753ZM89.1709 56.3783C102.849 53.7575 114.364 47.2757 123.399 37.1124C129.621 30.1127 138.015 24.2101 148.348 19.5672C173.952 8.06465 203.323 8.06319 228.929 19.5672C239.263 24.2093 247.657 30.1127 253.879 37.1124C262.912 47.2757 274.428 53.7575 288.107 56.3783C301.064 58.8614 309.592 70.8796 307.522 83.7396L300.308 128.551C296.587 128.389 292.734 128.668 288.821 129.465L296.628 80.9787C297.638 74.707 293.346 68.7073 287.062 67.6044C270.503 64.7005 256.526 56.948 245.516 44.5622C240.354 38.7558 233.236 33.7883 224.362 29.799C201.666 19.5971 175.63 19.5956 152.931 29.7925C144.05 33.7825 136.928 38.7514 131.763 44.5622C120.753 56.9473 106.775 64.6998 90.2158 67.6044C83.9316 68.7066 79.6404 74.7062 80.6504 80.9787L88.4538 129.445C84.8993 128.725 80.8508 128.384 76.9705 128.552L69.7558 83.7404C67.6849 70.8796 76.2134 58.8614 89.1709 56.3783V56.3783ZM78.9948 139.448C96.9656 139.448 112.335 152.691 112.335 169.752V214.193V222.28H104.373V179.743C104.373 163.569 91.8932 150.899 75.962 150.899C60.296 150.899 47.5506 163.658 47.5506 179.34C47.5506 179.513 47.5521 179.685 47.5557 179.857C46.3184 176.675 45.6546 173.268 45.6546 169.751C45.6539 152.756 60.9519 139.448 78.9948 139.448V139.448Z" fill="black"/>
<path d="M139.478 112.648H139.148V112.318C139.148 109.296 136.701 106.847 133.682 106.847C130.663 106.847 128.217 109.296 128.217 112.318V112.648H127.887C124.868 112.648 122.422 115.098 122.422 118.119C122.422 121.14 124.868 123.59 127.887 123.59H128.217V123.92C128.217 126.942 130.663 129.391 133.682 129.391C136.701 129.391 139.148 126.942 139.148 123.92V123.59H139.478C142.497 123.59 144.943 121.14 144.943 118.119C144.943 115.098 142.497 112.648 139.478 112.648Z" fill="black"/>
<path d="M194.434 112.648H194.104V112.318C194.104 109.296 191.658 106.847 188.639 106.847C185.62 106.847 183.173 109.296 183.173 112.318V112.648H182.843C179.824 112.648 177.378 115.098 177.378 118.119C177.378 121.14 179.824 123.59 182.843 123.59H183.173V123.92C183.173 126.942 185.62 129.391 188.639 129.391C191.658 129.391 194.104 126.942 194.104 123.92V123.59H194.434C197.453 123.59 199.899 121.14 199.899 118.119C199.899 115.098 197.453 112.648 194.434 112.648Z" fill="black"/>
<path d="M249.389 112.648H249.059V112.318C249.059 109.296 246.613 106.847 243.594 106.847C240.575 106.847 238.128 109.296 238.128 112.318V112.648H237.798C234.779 112.648 232.333 115.098 232.333 118.119C232.333 121.14 234.779 123.59 237.798 123.59H238.128V123.92C238.128 126.942 240.575 129.391 243.594 129.391C246.613 129.391 249.059 126.942 249.059 123.92V123.59H249.389C252.408 123.59 254.854 121.14 254.854 118.119C254.854 115.098 252.408 112.648 249.389 112.648Z" fill="black"/>
<path d="M166.956 155.928H166.626V155.598C166.626 152.576 164.179 150.127 161.16 150.127C158.141 150.127 155.695 152.576 155.695 155.598V155.928H155.365C152.346 155.928 149.9 158.378 149.9 161.399C149.9 164.42 152.346 166.87 155.365 166.87H155.695V167.2C155.695 170.222 158.141 172.671 161.16 172.671C164.179 172.671 166.626 170.222 166.626 167.2V166.87H166.956C169.975 166.87 172.421 164.42 172.421 161.399C172.421 158.378 169.975 155.928 166.956 155.928Z" fill="black"/>
<path d="M221.911 155.928H221.581V155.598C221.581 152.576 219.135 150.127 216.116 150.127C213.097 150.127 210.65 152.576 210.65 155.598V155.928H210.32C207.301 155.928 204.855 158.378 204.855 161.399C204.855 164.42 207.301 166.87 210.32 166.87H210.65V167.2C210.65 170.222 213.097 172.671 216.116 172.671C219.135 172.671 221.581 170.222 221.581 167.2V166.87H221.911C224.93 166.87 227.376 164.42 227.376 161.399C227.376 158.378 224.93 155.928 221.911 155.928Z" fill="black"/>
<path d="M166.956 69.3676H166.626V69.0371C166.626 66.0157 164.179 63.5662 161.16 63.5662C158.141 63.5662 155.695 66.0157 155.695 69.0371V69.3676H155.365C152.346 69.3676 149.9 71.8171 149.9 74.8385C149.9 77.8599 152.346 80.3094 155.365 80.3094H155.695V80.6399C155.695 83.6613 158.141 86.1108 161.16 86.1108C164.179 86.1108 166.626 83.6613 166.626 80.6399V80.3094H166.956C169.975 80.3094 172.421 77.8599 172.421 74.8385C172.421 71.8171 169.975 69.3676 166.956 69.3676Z" fill="black"/>
<path d="M221.911 69.3676H221.581V69.0371C221.581 66.0157 219.135 63.5662 216.116 63.5662C213.097 63.5662 210.65 66.0157 210.65 69.0371V69.3676H210.32C207.301 69.3676 204.855 71.8171 204.855 74.8385C204.855 77.8599 207.301 80.3094 210.32 80.3094H210.65V80.6399C210.65 83.6613 213.097 86.1108 216.116 86.1108C219.135 86.1108 221.581 83.6613 221.581 80.6399V80.3094H221.911C224.93 80.3094 227.376 77.8599 227.376 74.8385C227.376 71.8171 224.93 69.3676 221.911 69.3676Z" fill="black"/>
</g>
<defs>
<clipPath id="clip0">
<rect width="397" height="397" fill="white"/>
</clipPath>
</defs>
</svg>
