<svg width="16" height="16" viewBox="0 0 16 16" fill="none" xmlns="http://www.w3.org/2000/svg">
<path d="M3.02815 2.71693H2.86615C2.73668 2.71693 2.63177 2.82187 2.63177 2.95131C2.63177 3.08075 2.73668 3.18568 2.86615 3.18568H3.02815C3.15762 3.18568 3.26252 3.08075 3.26252 2.95131C3.26252 2.82187 3.15762 2.71693 3.02815 2.71693Z" fill="#333333"/>
<path d="M4.65297 2.95131C4.65297 3.08075 4.75788 3.18568 4.88734 3.18568H5.04931C5.17878 3.18568 5.28369 3.08075 5.28369 2.95131C5.28369 2.82187 5.17878 2.71693 5.04931 2.71693H4.88734C4.75788 2.71693 4.65297 2.82187 4.65297 2.95131Z" fill="#333333"/>
<path d="M6.90843 3.18568H7.07043C7.1999 3.18568 7.30481 3.08075 7.30481 2.95131C7.30481 2.82187 7.1999 2.71693 7.07043 2.71693H6.90843C6.77896 2.71693 6.67406 2.82187 6.67406 2.95131C6.67406 3.08075 6.77899 3.18568 6.90843 3.18568Z" fill="#333333"/>
<path d="M8.9296 3.18568H9.0916C9.22106 3.18568 9.32597 3.08075 9.32597 2.95131C9.32597 2.82187 9.22106 2.71693 9.0916 2.71693H8.9296C8.80013 2.71693 8.69522 2.82187 8.69522 2.95131C8.69522 3.08075 8.80013 3.18568 8.9296 3.18568Z" fill="#333333"/>
<path d="M10.9507 3.18568H11.1127C11.2422 3.18568 11.3471 3.08075 11.3471 2.95131C11.3471 2.82187 11.2422 2.71693 11.1127 2.71693H10.9507C10.8212 2.71693 10.7163 2.82187 10.7163 2.95131C10.7163 3.08075 10.8212 3.18568 10.9507 3.18568Z" fill="#333333"/>
<path d="M12.9719 3.18568H13.1339C13.2634 3.18568 13.3683 3.08075 13.3683 2.95131C13.3683 2.82187 13.2634 2.71693 13.1339 2.71693H12.9719C12.8424 2.71693 12.7375 2.82187 12.7375 2.95131C12.7375 3.08075 12.8424 3.18568 12.9719 3.18568Z" fill="#333333"/>
<path d="M3.02815 5.97244H2.86615C2.73668 5.97244 2.63177 6.07738 2.63177 6.20682C2.63177 6.33626 2.73668 6.44119 2.86615 6.44119H3.02815C3.15762 6.44119 3.26252 6.33626 3.26252 6.20682C3.26252 6.07738 3.15762 5.97244 3.02815 5.97244Z" fill="#333333"/>
<path d="M5.04928 5.97244H4.88731C4.75785 5.97244 4.65294 6.07738 4.65294 6.20682C4.65294 6.33626 4.75785 6.44119 4.88731 6.44119H5.04928C5.17875 6.44119 5.28366 6.33626 5.28366 6.20682C5.28366 6.07738 5.17875 5.97244 5.04928 5.97244Z" fill="#333333"/>
<path d="M6.90843 6.44119H7.07043C7.1999 6.44119 7.30481 6.33626 7.30481 6.20682C7.30481 6.07738 7.1999 5.97244 7.07043 5.97244H6.90843C6.77896 5.97244 6.67406 6.07738 6.67406 6.20682C6.67406 6.33626 6.77899 6.44119 6.90843 6.44119Z" fill="#333333"/>
<path d="M8.9296 6.44119H9.0916C9.22106 6.44119 9.32597 6.33626 9.32597 6.20682C9.32597 6.07738 9.22106 5.97244 9.0916 5.97244H8.9296C8.80013 5.97244 8.69522 6.07738 8.69522 6.20682C8.69522 6.33626 8.80013 6.44119 8.9296 6.44119Z" fill="#333333"/>
<path d="M10.9507 6.44119H11.1127C11.2422 6.44119 11.3471 6.33626 11.3471 6.20682C11.3471 6.07738 11.2422 5.97244 11.1127 5.97244H10.9507C10.8212 5.97244 10.7163 6.07738 10.7163 6.20682C10.7163 6.33626 10.8212 6.44119 10.9507 6.44119Z" fill="#333333"/>
<path d="M12.9719 6.44119H13.1339C13.2634 6.44119 13.3683 6.33626 13.3683 6.20682C13.3683 6.07738 13.2634 5.97244 13.1339 5.97244H12.9719C12.8424 5.97244 12.7375 6.07738 12.7375 6.20682C12.7375 6.33626 12.8424 6.44119 12.9719 6.44119Z" fill="#333333"/>
<path d="M3.87674 4.34471C3.74727 4.34471 3.64236 4.44965 3.64236 4.57909C3.64236 4.70852 3.74727 4.81346 3.87674 4.81346H4.03874C4.16821 4.81346 4.27311 4.70852 4.27311 4.57909C4.27311 4.44965 4.16821 4.34471 4.03874 4.34471H3.87674Z" fill="#333333"/>
<path d="M6.05986 4.81346C6.18933 4.81346 6.29423 4.70852 6.29423 4.57909C6.29423 4.44965 6.18933 4.34471 6.05986 4.34471H5.89786C5.76839 4.34471 5.66348 4.44965 5.66348 4.57909C5.66348 4.70852 5.76839 4.81346 5.89786 4.81346H6.05986Z" fill="#333333"/>
<path d="M8.08097 4.81346C8.21044 4.81346 8.31534 4.70852 8.31534 4.57909C8.31534 4.44965 8.21044 4.34471 8.08097 4.34471H7.91897C7.78951 4.34471 7.6846 4.44965 7.6846 4.57909C7.6846 4.70852 7.78951 4.81346 7.91897 4.81346H8.08097Z" fill="#333333"/>
<path d="M10.1022 4.81346C10.2316 4.81346 10.3365 4.70852 10.3365 4.57909C10.3365 4.44965 10.2316 4.34471 10.1022 4.34471H9.94016C9.81069 4.34471 9.70578 4.44965 9.70578 4.57909C9.70578 4.70852 9.81069 4.81346 9.94016 4.81346H10.1022Z" fill="#333333"/>
<path d="M12.1233 4.81346C12.2527 4.81346 12.3576 4.70852 12.3576 4.57909C12.3576 4.44965 12.2527 4.34471 12.1233 4.34471H11.9613C11.8318 4.34471 11.7269 4.44965 11.7269 4.57909C11.7269 4.70852 11.8318 4.81346 11.9613 4.81346H12.1233Z" fill="#333333"/>
<path d="M15.6115 11.532H15.5657V9.7967C15.5657 9.32267 15.1923 8.93427 14.7241 8.9103V2.77055C14.7241 1.69983 13.853 0.828735 12.7823 0.828735H5.71453C5.58506 0.828735 5.48016 0.933673 5.48016 1.06311C5.48016 1.19255 5.58506 1.29749 5.71453 1.29749H12.7823C13.5945 1.29749 14.2553 1.9583 14.2553 2.77055V8.90908H12.9041C12.9503 8.80795 12.9763 8.69574 12.9763 8.57749C12.9763 8.13617 12.6173 7.77714 12.176 7.77714H11.6656C11.5362 7.77714 11.4312 7.88208 11.4312 8.01152C11.4312 8.14095 11.5362 8.24589 11.6656 8.24589H12.176C12.3589 8.24589 12.5076 8.39467 12.5076 8.57749C12.5076 8.76036 12.3588 8.90908 12.176 8.90908H10.2182C10.0353 8.90908 9.88659 8.76033 9.88659 8.57749C9.88659 8.39464 10.0353 8.24589 10.2182 8.24589H10.7286C10.858 8.24589 10.9629 8.14099 10.9629 8.01152C10.9629 7.88205 10.858 7.77714 10.7286 7.77714H10.2182C9.77687 7.77714 9.41784 8.13617 9.41784 8.57749C9.41784 8.69574 9.44384 8.80799 9.49006 8.90908H6.51C6.55622 8.80795 6.58222 8.69574 6.58222 8.57749C6.58222 8.13617 6.22322 7.77717 5.78191 7.77717H3.82409C3.38278 7.77717 3.02375 8.13617 3.02375 8.57749C3.02375 8.69574 3.04975 8.80799 3.09597 8.90908H1.74472V2.77055C1.74472 1.9583 2.40553 1.29749 3.21778 1.29749H4.7775C4.90697 1.29749 5.01188 1.19255 5.01188 1.06311C5.01188 0.933673 4.90697 0.828735 4.7775 0.828735H3.21778C2.14706 0.828735 1.27597 1.69983 1.27597 2.77055V8.91027C0.807813 8.93427 0.434344 9.32267 0.434344 9.79667V11.532H0.388563C0.174281 11.532 0 11.7063 0 11.9205V13.0974C0 13.3115 0.174281 13.4859 0.388531 13.4859H1.17744L0.881031 14.0178C0.745719 14.2606 0.748969 14.5487 0.889813 14.7884C1.03066 15.0281 1.28069 15.1712 1.55869 15.1712C1.83984 15.1712 2.09953 15.0186 2.23638 14.773L2.95366 13.4859H3.95775C4.08722 13.4859 4.19212 13.381 4.19212 13.2515C4.19212 13.122 4.08722 13.0171 3.95775 13.0171H0.46875V12.0008H15.5312V13.0171H4.89484C4.76537 13.0171 4.66047 13.122 4.66047 13.2515C4.66047 13.381 4.76537 13.4859 4.89484 13.4859H13.0464L13.7637 14.773C13.9005 15.0186 14.1602 15.1712 14.4413 15.1712C14.7193 15.1712 14.9693 15.0281 15.1102 14.7884C15.251 14.5487 15.2543 14.2606 15.119 14.0178L14.8226 13.4859H15.6115C15.8257 13.4859 16 13.3116 16 13.0974V11.9205C16 11.7063 15.8257 11.532 15.6115 11.532ZM2.41703 13.4859L1.82687 14.5449C1.77275 14.6421 1.66997 14.7025 1.55869 14.7025C1.44703 14.7025 1.35053 14.6472 1.29394 14.551C1.23737 14.4547 1.23609 14.3435 1.2905 14.246L1.71406 13.4859H2.41703ZM14.7095 14.246C14.7639 14.3435 14.7626 14.4547 14.7061 14.551C14.6495 14.6473 14.553 14.7025 14.4413 14.7025C14.3301 14.7025 14.2273 14.6421 14.1732 14.5449L13.583 13.4859H14.2859L14.7095 14.246ZM3.49244 8.57749C3.49244 8.39464 3.64119 8.24592 3.82403 8.24592H5.78184C5.96469 8.24592 6.11341 8.39467 6.11341 8.57749C6.11341 8.76036 5.96466 8.90908 5.78184 8.90908H3.82403C3.64119 8.90908 3.49244 8.76033 3.49244 8.57749ZM0.903031 11.532V9.7967C0.903031 9.56574 1.09094 9.37786 1.32187 9.37786H14.6781C14.9091 9.37786 15.097 9.56577 15.097 9.7967V11.532H0.903031Z" fill="#333333"/>
</svg>
