<svg width="397" height="397" viewBox="0 0 397 397" fill="none" xmlns="http://www.w3.org/2000/svg">
<path d="M373.738 181.03V90.7025C373.738 52.236 342.433 20.941 303.953 20.941H230.679C226.396 20.941 222.925 24.4112 222.925 28.6923C222.925 32.9733 226.396 36.4435 230.679 36.4435H303.953C333.882 36.4435 358.23 60.7841 358.23 90.7025V172.87C352.39 170.862 346.134 169.756 339.621 169.756H338.07V125.316C338.07 108.789 324.62 95.3439 308.088 95.3439H220.728C211.921 95.3439 203.991 99.1607 198.5 105.224C193.009 99.1607 185.079 95.3439 176.272 95.3439H88.9117C72.3796 95.3439 58.9297 108.789 58.9297 125.315V169.755H57.3789C50.8656 169.755 44.6098 170.862 38.7695 172.869V90.7025C38.7695 60.7841 63.1183 36.4435 93.0469 36.4435H167.872C172.155 36.4435 175.626 32.9733 175.626 28.6923C175.626 24.4112 172.155 20.941 167.872 20.941H93.0469C54.5673 20.941 23.2617 52.236 23.2617 90.7025V181.03C9.15891 191.491 0 208.253 0 227.116V326.333C0 330.614 3.47142 334.084 7.75391 334.084H23.2617V368.19C23.2617 372.471 26.7331 375.941 31.0156 375.941H72.896C77.1785 375.941 80.6499 372.471 80.6499 368.19V334.084H316.35V368.19C316.35 372.471 319.821 375.941 324.104 375.941H365.984C370.267 375.941 373.738 372.471 373.738 368.19V334.084H389.246C393.529 334.084 397 330.614 397 326.333V227.116C397 208.252 387.841 191.49 373.738 181.03ZM206.254 125.315C206.254 117.337 212.747 110.846 220.728 110.846H308.089C316.07 110.846 322.563 117.337 322.563 125.315V169.755H206.254V125.315ZM74.4375 125.315C74.4375 117.337 80.9306 110.846 88.9117 110.846H176.273C184.254 110.846 190.747 117.337 190.747 125.315V169.755H74.4375V125.315ZM65.1421 360.438H38.7695V334.083H65.1421V360.438ZM358.23 360.438H331.858V334.083H358.23V360.438ZM381.492 281.375H71.2747C66.9922 281.375 63.5208 284.845 63.5208 289.126C63.5208 293.407 66.9922 296.877 71.2747 296.877H381.492V318.581H366.172C366.109 318.579 366.048 318.571 365.984 318.571H324.104C324.04 318.571 323.979 318.579 323.916 318.581H73.0837C73.0209 318.579 72.9596 318.571 72.896 318.571H31.0156C30.952 318.571 30.8908 318.579 30.828 318.581H15.5078V227.116C15.5078 204.035 34.2909 185.259 57.3789 185.259H66.6836H198.5H330.316H339.621C362.709 185.259 381.492 204.035 381.492 227.116V281.375Z" fill="black"/>
<path d="M203.982 23.2113C202.54 21.7691 200.539 20.9395 198.5 20.9395C196.461 20.9395 194.46 21.7691 193.018 23.2113C191.576 24.6536 190.746 26.6541 190.746 28.6934C190.746 30.7326 191.576 32.7331 193.018 34.1754C194.46 35.6176 196.461 36.4473 198.5 36.4473C200.539 36.4473 202.54 35.6176 203.982 34.1754C205.424 32.7331 206.254 30.7404 206.254 28.6934C206.254 26.6541 205.424 24.6528 203.982 23.2113Z" fill="black"/>
<path d="M45.8643 283.734C44.4221 282.292 42.4216 281.462 40.3823 281.462C38.3353 281.462 36.3425 282.292 34.9003 283.734C33.4581 285.176 32.6284 287.177 32.6284 289.216C32.6284 291.255 33.4581 293.256 34.9003 294.698C36.3425 296.14 38.343 296.97 40.3823 296.97C42.4216 296.97 44.4221 296.14 45.8643 294.698C47.3066 293.256 48.1362 291.255 48.1362 289.216C48.1362 287.177 47.3066 285.176 45.8643 283.734Z" fill="black"/>
</svg>
