<svg width="64" height="64" viewBox="0 0 64 64" fill="none" xmlns="http://www.w3.org/2000/svg">
<path d="M52 64H12C5.372 64 0 58.628 0 52V12C0 5.372 5.372 0 12 0H52C58.628 0 64 5.372 64 12V52C64 58.628 58.628 64 52 64Z" fill="#FFF9DD"/>
<path d="M47.4175 12H16.5825C14.055 12 12 14.055 12 16.5825V47.415C12 49.945 14.055 52 16.5825 52H47.4175C49.945 52 52 49.945 52 47.4175V16.5825C52 14.055 49.945 12 47.4175 12V12ZM26.4975 18.98C30.2625 17.335 34.7675 17.495 38.405 19.4175C39.015 19.7425 39.2475 20.4975 38.925 21.1075C38.7 21.5325 38.2675 21.7725 37.82 21.7725C37.6225 21.7725 37.4225 21.725 37.235 21.6275C34.2425 20.04 30.6 19.915 27.5 21.27C26.865 21.5425 26.13 21.2575 25.8525 20.625C25.5775 19.9925 25.865 19.2575 26.4975 18.98V18.98ZM20.75 40.4825C20.75 41.1725 20.19 41.7325 19.5 41.7325C18.81 41.7325 18.25 41.1725 18.25 40.4825V31.5825C18.25 27.83 19.735 24.3225 22.4325 21.71C22.925 21.23 23.72 21.24 24.2 21.74C24.68 22.235 24.6675 23.025 24.1725 23.5075C21.965 25.645 20.75 28.515 20.75 31.5825V40.4825ZM26.3925 28.81C25.965 29.675 25.75 30.6075 25.75 31.5825V44.05C25.75 44.74 25.19 45.3 24.5 45.3C23.81 45.3 23.25 44.74 23.25 44.05V31.5825C23.25 30.2175 23.5525 28.9125 24.1525 27.7025C24.4575 27.0825 25.2075 26.8225 25.8275 27.135C26.445 27.44 26.7 28.1925 26.3925 28.81V28.81ZM30.75 45.565C30.75 46.255 30.19 46.815 29.5 46.815C28.81 46.815 28.25 46.255 28.25 45.565V39.0825C28.25 38.3925 28.81 37.8325 29.5 37.8325C30.19 37.8325 30.75 38.3925 30.75 39.0825V45.565ZM35.75 45.565C35.75 46.255 35.19 46.815 34.5 46.815C33.81 46.815 33.25 46.255 33.25 45.565V39.0825C33.25 38.3925 33.81 37.8325 34.5 37.8325C35.19 37.8325 35.75 38.3925 35.75 39.0825V45.565ZM35.75 34.895C35.75 35.585 35.19 36.145 34.5 36.145C33.81 36.145 33.25 35.585 33.25 34.895V31.585C33.25 30.8975 32.69 30.335 32 30.335C31.31 30.335 30.75 30.8975 30.75 31.585V34.9175C30.75 35.6075 30.19 36.1675 29.5 36.1675C28.81 36.1675 28.25 35.6075 28.25 34.9175V31.585C28.25 29.5175 29.9325 27.835 32 27.835C34.0675 27.835 35.75 29.5175 35.75 31.585V34.895ZM36.41 27.16C35.9375 26.6825 35.3875 26.285 34.775 25.98C32.7125 24.955 30.1275 25.18 28.265 26.565C27.71 26.9775 26.9275 26.8625 26.515 26.3075C26.1025 25.755 26.2175 24.97 26.7725 24.56C29.37 22.6275 33.0125 22.31 35.89 23.7425C36.75 24.17 37.525 24.73 38.1925 25.4075C38.6775 25.9 38.67 26.69 38.18 27.175C37.9375 27.415 37.62 27.535 37.3025 27.535C36.9775 27.535 36.655 27.41 36.41 27.16V27.16ZM40.75 44.05C40.75 44.74 40.19 45.3 39.5 45.3C38.81 45.3 38.25 44.74 38.25 44.05V31.5825C38.25 30.8625 38.13 30.1575 37.8925 29.485C37.6625 28.835 38.0025 28.12 38.6525 27.89C39.3075 27.66 40.02 28 40.2475 28.6525C40.58 29.5925 40.75 30.5775 40.75 31.5825V44.05ZM45.75 40.4825C45.75 41.1725 45.19 41.7325 44.5 41.7325C43.81 41.7325 43.25 41.1725 43.25 40.4825V31.5825C43.25 28.5825 42.0775 25.76 39.95 23.6325C39.4625 23.145 39.4625 22.3525 39.95 21.865C40.4375 21.3775 41.23 21.3775 41.7175 21.865C44.3175 24.465 45.75 27.915 45.75 31.5825V40.4825Z" fill="#FFD200"/>
</svg>
