<svg width="64" height="64" viewBox="0 0 64 64" fill="none" xmlns="http://www.w3.org/2000/svg">
<path d="M52 64H12C5.372 64 0 58.628 0 52V12C0 5.372 5.372 0 12 0H52C58.628 0 64 5.372 64 12V52C64 58.628 58.628 64 52 64Z" fill="#FFF9DD"/>
<path d="M38.8462 46C39.4983 43.8319 40.8025 41.8805 42.5414 40.3627C45.8018 37.6524 47.8668 33.5329 47.8668 28.9797C47.8668 20.5238 40.8026 13.5856 32.1081 14.0193C24.3917 14.3445 18.0882 20.8491 17.8709 28.5461C17.7621 33.3161 19.8271 37.5441 23.1962 40.3627C25.0438 41.8804 26.3479 43.8318 27 46H38.8462Z" fill="#FFD15C"/>
<path d="M31.7265 46H32.5568L28.8664 33.4337C28.9587 33.4337 29.0509 33.4337 29.1432 33.4337C29.6045 33.4337 30.0658 33.2651 30.4348 32.9277C30.6193 32.759 30.8039 32.6747 31.0806 32.6747C31.3574 32.6747 31.5419 32.759 31.7265 32.9277C32.3723 33.6024 33.4794 33.6024 34.1252 32.9277C34.3096 32.759 34.4942 32.6747 34.771 32.6747C34.9555 32.6747 35.2323 32.759 35.4168 32.9277C35.7859 33.2651 36.1549 33.4337 36.7084 33.4337C36.8007 33.4337 36.8929 33.4337 36.9852 33.4337L33.3871 46H34.2174L38 32.8433C38 32.6747 38 32.5059 37.8155 32.4217C37.631 32.3373 37.4465 32.4217 37.3543 32.506C37.1698 32.6747 36.9852 32.759 36.8007 32.759C36.5239 32.759 36.3394 32.6747 36.0627 32.506C35.6936 32.1686 35.3246 32 34.8633 32C34.4019 32 34.033 32.1686 33.6639 32.506C33.2948 32.8434 32.7413 32.8434 32.3723 32.506C32.0955 32.1686 31.6343 32 31.1729 32C30.7117 32 30.2503 32.1686 29.9735 32.506C29.7891 32.6747 29.5123 32.759 29.2355 32.759C29.051 32.759 28.7742 32.6747 28.682 32.506C28.5897 32.4217 28.4052 32.3374 28.2207 32.4217C28.0362 32.506 27.9439 32.6747 28.0362 32.8433L31.7265 46Z" fill="white"/>
<path d="M29.3238 55.4395C29.8743 56.7026 31.1954 57.65 32.7367 57.65C34.2779 57.65 35.599 56.7026 36.1496 55.4395H29.3238Z" fill="#344A5E"/>
<path d="M36.8101 55.5448H28.7734C27.6724 55.5448 26.7917 54.7027 26.7917 53.65V45.65H38.7917V53.65C38.7917 54.7026 37.911 55.5448 36.8101 55.5448Z" fill="#344A5E"/>
<path d="M38.4917 49.7666H26.7917C26.1417 49.7666 25.6001 49.225 25.6001 48.575C25.6001 47.925 26.1417 47.3834 26.7917 47.3834H38.4917C39.1417 47.3834 39.6834 47.925 39.6834 48.575C39.6834 49.225 39.1417 49.7666 38.4917 49.7666Z" fill="#415A6B"/>
<path d="M38.4917 53.5584H26.7917C26.1417 53.5584 25.6001 53.0167 25.6001 52.3667C25.6001 51.7167 26.1417 51.1751 26.7917 51.1751H38.4917C39.1417 51.1751 39.6834 51.7167 39.6834 52.3667C39.6834 53.0166 39.1417 53.5584 38.4917 53.5584Z" fill="#415A6B"/>
<path d="M32 6C31.4737 6 30.9473 6.44448 30.9473 7.11115V10.889C30.9473 11.4445 31.3684 12.0001 32 12.0001C32.6316 12.0001 33.0527 11.5556 33.0527 10.889V7.11115C33.0527 6.44448 32.5263 6 32 6Z" fill="#FFD15C"/>
<path d="M17.8948 12.7778C17.4737 12.3333 16.8421 12.3333 16.4212 12.7778C16.0002 13.2223 16.0001 13.8889 16.4212 14.3333L18.9475 17C19.3685 17.4444 20.0001 17.4444 20.4211 17C20.8421 16.5555 20.8422 15.8888 20.4211 15.4445L17.8948 12.7778Z" fill="#FFD15C"/>
<path d="M14.6316 28.1111H11.0527C10.5264 28.1111 10 28.5556 10 29.2223C10 29.7778 10.4211 30.3334 11.0527 30.3334H14.6316C15.1579 30.3334 15.6843 29.889 15.6843 29.2223C15.6843 28.6667 15.1579 28.1111 14.6316 28.1111Z" fill="#FFD15C"/>
<path d="M18.9473 41.4445L16.421 44.1112C16 44.5556 16 45.2223 16.421 45.6667C16.8421 46.1111 17.4737 46.1112 17.8947 45.6667L20.421 43C20.8421 42.5555 20.8421 41.8889 20.421 41.4445C19.9999 41.0001 19.3684 41 18.9473 41.4445Z" fill="#FFD15C"/>
<path d="M45.0526 41.4445C44.6315 41 44 41 43.5789 41.4445C43.1578 41.8889 43.1578 42.5556 43.5789 43L46.1052 45.6666C46.5263 46.1111 47.1579 46.1111 47.5788 45.6666C47.9998 45.2222 47.9999 44.5555 47.5788 44.1111L45.0526 41.4445Z" fill="#FFD15C"/>
<path d="M52.9473 28.1111H49.3684C48.8421 28.1111 48.3157 28.5556 48.3157 29.2223C48.3157 29.7778 48.7368 30.3334 49.3684 30.3334H52.9473C53.4736 30.3334 54 29.889 54 29.2223C53.9999 28.6667 53.5789 28.1111 52.9473 28.1111Z" fill="#FFD15C"/>
<path d="M46.1052 12.7778L43.5789 15.4445C43.1578 15.889 43.1578 16.5556 43.5789 17C44 17.4445 44.6315 17.4445 45.0525 17L47.5788 14.3333C47.9999 13.8889 47.9999 13.2222 47.5788 12.7778C47.1577 12.3334 46.5263 12.3333 46.1052 12.7778Z" fill="#FFD15C"/>
</svg>
