<svg width="64" height="64" viewBox="0 0 64 64" fill="none" xmlns="http://www.w3.org/2000/svg">
<path d="M52 64H12C5.372 64 0 58.628 0 52V12C0 5.372 5.372 0 12 0H52C58.628 0 64 5.372 64 12V52C64 58.628 58.628 64 52 64Z" fill="#FFF9DD"/>
<path d="M22.2232 30L12 48.8456L21.2836 48.0064L25.7768 56L36 37.1544L22.2232 30Z" fill="#E95454"/>
<path d="M24.1475 50.4875C24.4294 49.8821 24.1346 49.1587 23.5449 48.8451L22.9668 48.5374C22.3887 48.208 22.1686 47.476 22.4836 46.8835C22.8029 46.2809 23.5536 46.0508 24.1562 46.37L25.7899 47.2373C26.2947 47.5048 26.9275 47.3106 27.1878 46.8029L27.2281 46.7253C27.5273 46.2463 27.3504 45.6136 26.8528 45.3504L21.9658 42.7573C21.3704 42.4409 21.0785 41.7204 21.356 41.1135C21.6624 40.4678 22.4361 40.2132 23.0588 40.544L27.592 42.95C28.0968 43.2175 28.7296 43.0234 28.9971 42.5186L29.023 42.4524L29.0301 42.4381C29.3192 41.9088 29.1164 41.2444 28.5829 40.9611L26.0402 39.612C25.4448 39.2956 25.1528 38.5751 25.4347 37.961C25.7382 37.3225 26.5148 37.0607 27.1375 37.3915L29.9463 38.8829C30.4712 39.1619 31.0982 38.9289 31.3701 38.3997C31.3744 38.3925 31.3744 38.3925 31.3772 38.3853C31.3816 38.3781 31.3816 38.3781 31.3844 38.3709C31.6706 37.8488 31.5124 37.1988 30.9861 36.9212L27.9558 35.3133C27.3676 35.0013 27.0757 34.2807 27.3532 33.6738C27.6596 33.0281 28.4333 32.7735 29.056 33.1043L36.5317 37.0722L26.486 55.9986L23.7175 50.9664C23.8959 50.8456 24.0512 50.6961 24.1475 50.4875Z" fill="#ED6362"/>
<path d="M41.7882 29.8871L51.8339 48.8135L42.7115 47.9707L38.2963 55.9986L28.2507 37.0722L41.7882 29.8871Z" fill="#ED6362"/>
<path d="M40.9656 50.2576C40.6705 49.6269 40.9792 48.8733 41.5964 48.5467L42.2017 48.2261C42.8069 47.883 43.0372 47.1205 42.7075 46.5032C42.3733 45.8755 41.5874 45.6358 40.9566 45.9684L39.2463 46.8718C38.7179 47.1504 38.0554 46.9482 37.7829 46.4193L37.7408 46.3384C37.4276 45.8395 37.6128 45.1804 38.1337 44.9062L43.251 42.2035C43.8743 41.8739 44.1799 41.1234 43.8894 40.4912C43.5687 39.8185 42.7587 39.5533 42.1068 39.8979L37.3614 42.4043C36.8329 42.6829 36.1705 42.4807 35.8905 41.9548L35.8634 41.8859L35.8559 41.871C35.5532 41.3196 35.7655 40.6275 36.3241 40.3324L38.9859 38.9271C39.6091 38.5975 39.9148 37.8469 39.6197 37.2072C39.302 36.542 38.489 36.2694 37.8371 36.6139L34.8938 38.1705C34.3443 38.4612 33.6879 38.2185 33.4033 37.6671C33.3988 37.6597 33.3988 37.6597 33.3958 37.6522C33.3913 37.6447 33.3913 37.6447 33.3883 37.6372C33.0887 37.0934 33.2543 36.4162 33.8053 36.127L36.9775 34.4521C37.5932 34.127 37.8989 33.3764 37.6083 32.7442C37.2876 32.0716 36.4776 31.8064 35.8257 32.151L28 36.2844L38.5161 56L41.4143 50.758C41.2291 50.6306 41.0665 50.4748 40.9656 50.2576Z" fill="#E95454"/>
<path d="M32 44C40.8366 44 48 36.8366 48 28C48 19.1634 40.8366 12 32 12C23.1634 12 16 19.1634 16 28C16 36.8366 23.1634 44 32 44Z" fill="#FFD200"/>
<path d="M32 40C25.3828 40 20 34.6154 20 27.9993C20 21.3831 25.3828 16 32 16C38.6172 16 44 21.3845 44 28.0007C44 34.6169 38.6172 40 32 40Z" fill="#FFD200"/>
<path d="M26.6197 33.528C26.4313 33.6992 26.3206 33.9034 26.2328 34.1191C26.1494 34.3363 26.089 34.565 26.1048 34.821C26.1221 35.0784 26.2271 35.3617 26.2415 35.6163C26.2443 35.6493 26.2357 35.681 26.2371 35.7126C25.7539 35.0741 25.3412 34.3967 25.0003 33.692C25.0089 33.5496 25.0305 33.4144 25.0823 33.2951C25.1657 33.088 25.3426 32.9326 25.4548 32.7442C25.5655 32.5558 25.6202 32.3401 25.6676 32.1201C25.7108 31.8971 25.7453 31.6714 25.7237 31.4067C25.7036 31.3938 25.682 31.3808 25.6619 31.3665C25.4476 31.4801 25.2995 31.6397 25.17 31.8152C25.0463 31.9935 24.9399 32.1862 24.8996 32.4221C24.8623 32.6594 24.8996 32.9398 24.8579 33.1714C24.8507 33.216 24.8306 33.2548 24.8191 33.2979C24.5085 32.5932 24.2669 31.8641 24.0957 31.1205C24.1345 30.9595 24.1878 30.8099 24.2755 30.692C24.3963 30.5237 24.5976 30.4245 24.7414 30.2806C24.8838 30.1339 24.9773 29.9499 25.0636 29.7571C25.147 29.5601 25.2218 29.3588 25.2477 29.1057C25.2304 29.0884 25.2132 29.0711 25.1959 29.0539C24.9716 29.1071 24.8004 29.2207 24.6451 29.3516C24.4926 29.4853 24.356 29.6407 24.2712 29.8463C24.1892 30.0548 24.1705 30.3223 24.0842 30.5237C24.0626 30.5783 24.0281 30.62 23.9993 30.6689C23.8584 29.9326 23.7851 29.1848 23.7807 28.4355C23.857 28.2586 23.9461 28.0975 24.0756 27.9911C24.2223 27.8645 24.4294 27.8242 24.5919 27.725C24.753 27.6243 24.8752 27.4719 24.9917 27.3122C25.1053 27.1469 25.2117 26.9728 25.2822 26.737C25.2693 26.7154 25.2563 26.6953 25.2434 26.6737C25.0219 26.6679 24.8421 26.7355 24.6724 26.8204C24.5056 26.911 24.3474 27.0203 24.2309 27.1958C24.1144 27.3727 24.0482 27.6186 23.9289 27.7854C23.8886 27.8444 23.8383 27.8875 23.7894 27.9335C23.8153 27.2015 23.9059 26.4709 24.0612 25.749C24.0684 25.7374 24.0756 25.7274 24.0828 25.7159C24.1993 25.539 24.3287 25.3822 24.4912 25.3031C24.6508 25.2197 24.8493 25.2355 25.019 25.1809C25.1873 25.1248 25.3282 25.0097 25.4663 24.8817C25.6015 24.7494 25.7324 24.607 25.8431 24.3928C25.8345 24.3697 25.8273 24.3453 25.8186 24.3208C25.6159 24.2619 25.4375 24.2835 25.2649 24.3237C25.0938 24.3697 24.927 24.4373 24.786 24.5768C24.6451 24.7192 24.5358 24.9393 24.3934 25.0658C24.3316 25.1248 24.264 25.1636 24.1935 25.201C24.3833 24.4848 24.6408 23.7801 24.9629 23.097C24.9687 23.1056 24.9759 23.1128 24.9816 23.1214C25.0089 23.0926 25.0377 23.0653 25.065 23.0366C25.2089 22.8942 25.3584 22.7748 25.5209 22.7389C25.6835 22.6971 25.8603 22.7619 26.0243 22.7489C26.1883 22.7345 26.3407 22.6554 26.4931 22.562C26.6442 22.4627 26.7937 22.352 26.9404 22.165C26.939 22.1391 26.9361 22.1132 26.9347 22.0888C26.7635 21.9838 26.5981 21.9622 26.4313 21.9622C26.2659 21.9666 26.1005 21.9939 25.9423 22.0974C25.7841 22.2039 25.6374 22.3923 25.4821 22.4814C25.4059 22.5289 25.3253 22.5562 25.2448 22.5735C25.2477 22.5576 25.2477 22.5433 25.2506 22.5274C25.7741 21.5552 26.4399 20.6362 27.2496 19.7992C26.4831 20.5399 25.8316 21.3568 25.2937 22.2269C25.2951 22.201 25.3067 22.1708 25.3067 22.1449C25.3196 21.9579 25.3282 21.7724 25.311 21.5969C25.2549 21.2532 25.1614 20.921 24.9068 20.6406C24.8795 20.6506 24.8522 20.6607 24.8249 20.6708C24.5545 21.1468 24.484 21.5624 24.4826 21.9421C24.4941 22.1276 24.5358 22.2973 24.5919 22.4598C24.6379 22.6281 24.7213 22.7762 24.8249 22.9129C24.8392 22.933 24.8536 22.9517 24.8694 22.9718C24.5617 23.5572 24.3028 24.1641 24.0943 24.7839C24.0928 24.7782 24.0943 24.771 24.0928 24.7638C24.0511 24.5725 24.0109 24.3784 23.949 24.1986C23.8052 23.852 23.6297 23.5227 23.3105 23.2767C23.286 23.2926 23.263 23.3084 23.2386 23.3242C23.0933 23.8707 23.1278 24.318 23.2256 24.712C23.2831 24.9019 23.3709 25.0701 23.4687 25.2283C23.5578 25.3937 23.6801 25.5318 23.8181 25.654C23.8225 25.6569 23.8268 25.6612 23.8296 25.6641C23.6714 26.2796 23.5593 26.9052 23.496 27.5366C23.4111 27.3511 23.3248 27.167 23.2213 27.0016C22.9883 26.6708 22.7309 26.3616 22.3512 26.1631C22.3311 26.1833 22.3109 26.2034 22.2908 26.225C22.2822 26.8175 22.4303 27.272 22.6288 27.6603C22.7366 27.8458 22.8675 28.0026 23.007 28.1464C23.1293 28.2873 23.2774 28.3938 23.4341 28.4887C23.4183 29.1114 23.4471 29.737 23.5233 30.3583C23.3968 30.1972 23.2716 30.0347 23.1336 29.8952C22.8129 29.6018 22.4734 29.3314 22.042 29.1919C22.0262 29.2164 22.0118 29.2408 21.996 29.2653C22.134 29.8736 22.4015 30.3123 22.7036 30.6704C22.8603 30.8401 23.0343 30.9753 23.2141 31.0946C23.3579 31.2025 23.519 31.2715 23.683 31.3334C23.8052 31.9403 23.9735 32.54 24.1863 33.1297C24.0238 33.0002 23.8642 32.8679 23.6959 32.7572C23.2903 32.5199 22.8747 32.307 22.3972 32.2437C22.3872 32.2711 22.3785 32.2984 22.3685 32.3257C22.6633 32.9197 23.0487 33.3152 23.4528 33.6201C23.6585 33.7625 23.8728 33.8646 24.09 33.9509C24.2482 34.0228 24.4135 34.0544 24.5775 34.0846C24.8364 34.6513 25.1413 35.2035 25.4893 35.7356C25.2966 35.6436 25.1053 35.5458 24.9126 35.4739C24.4294 35.3157 23.9433 35.1791 23.4327 35.2006C23.4298 35.2308 23.427 35.2596 23.4241 35.2898C23.88 35.8363 24.3848 36.1599 24.8853 36.3871C25.1369 36.4892 25.3886 36.5496 25.6389 36.5928C25.8028 36.6287 25.9639 36.623 26.1264 36.6244C26.3968 36.9696 26.6887 37.3032 26.9994 37.6254C27.1633 37.4614 27.3287 37.2961 27.4927 37.1321C27.1346 36.7869 26.8024 36.4231 26.4946 36.0463C26.4788 35.9226 26.473 35.8032 26.4903 35.6896C26.5205 35.4494 26.6571 35.2423 26.7233 35.018C26.7865 34.7922 26.7908 34.5535 26.788 34.3118C26.7808 34.0688 26.765 33.8257 26.6873 33.5568C26.6657 33.5453 26.6427 33.5367 26.6197 33.528Z" fill="#ED6362"/>
<path d="M38.1654 33.528C38.3538 33.6992 38.4645 33.9034 38.5523 34.1191C38.6357 34.3363 38.6961 34.5649 38.6802 34.8209C38.663 35.0784 38.558 35.3617 38.5436 35.6162C38.5407 35.6493 38.5494 35.681 38.5479 35.7126C39.0312 35.0741 39.4439 34.3967 39.7848 33.692C39.7761 33.5496 39.7546 33.4144 39.7028 33.295C39.6194 33.0879 39.4425 32.9326 39.3303 32.7442C39.2196 32.5558 39.1649 32.3401 39.1175 32.12C39.0743 31.8971 39.0398 31.6713 39.0614 31.4067C39.0815 31.3938 39.1031 31.3808 39.1232 31.3664C39.3375 31.4801 39.4856 31.6397 39.6151 31.8151C39.7387 31.9935 39.8452 32.1862 39.8854 32.4221C39.9228 32.6594 39.8854 32.9398 39.9271 33.1713C39.9343 33.2159 39.9545 33.2548 39.966 33.2979C40.2766 32.5932 40.5182 31.864 40.6894 31.1205C40.6505 30.9594 40.5973 30.8099 40.5096 30.6919C40.3888 30.5237 40.1875 30.4244 40.0436 30.2806C39.9013 30.1339 39.8078 29.9498 39.7215 29.7571C39.6381 29.5601 39.5633 29.3588 39.5374 29.1056C39.5547 29.0884 39.5719 29.0711 39.5892 29.0539C39.8135 29.1071 39.9847 29.2207 40.14 29.3516C40.2924 29.4853 40.4291 29.6406 40.5139 29.8463C40.5959 30.0548 40.6146 30.3223 40.7009 30.5237C40.7225 30.5783 40.757 30.62 40.7857 30.6689C40.9267 29.9326 41 29.1847 41.0043 28.4354C40.9281 28.2585 40.8389 28.0975 40.7095 27.991C40.5628 27.8645 40.3557 27.8242 40.1932 27.725C40.0321 27.6243 39.9099 27.4719 39.7934 27.3122C39.6798 27.1468 39.5734 26.9728 39.5029 26.737C39.5158 26.7154 39.5288 26.6953 39.5417 26.6737C39.7632 26.6679 39.943 26.7355 40.1127 26.8204C40.2795 26.911 40.4377 27.0203 40.5542 27.1957C40.6707 27.3726 40.7368 27.6186 40.8562 27.7854C40.8965 27.8444 40.9468 27.8875 40.9957 27.9335C40.9698 27.2015 40.8792 26.4709 40.7239 25.7489C40.7167 25.7374 40.7095 25.7274 40.7023 25.7159C40.5858 25.539 40.4564 25.3822 40.2939 25.3031C40.1342 25.2197 39.9358 25.2355 39.7661 25.1809C39.5978 25.1248 39.4569 25.0097 39.3188 24.8817C39.1836 24.7494 39.0527 24.607 38.942 24.3927C38.9506 24.3697 38.9578 24.3453 38.9664 24.3208C39.1692 24.2619 39.3476 24.2834 39.5201 24.3237C39.6913 24.3697 39.8581 24.4373 39.9991 24.5768C40.14 24.7192 40.2493 24.9392 40.3917 25.0658C40.4535 25.1248 40.5211 25.1636 40.5916 25.201C40.4046 24.4862 40.1486 23.7815 39.825 23.0984C39.8193 23.107 39.8121 23.1142 39.8063 23.1228C39.779 23.0941 39.7503 23.0667 39.7229 23.038C39.5791 22.8956 39.4295 22.7762 39.267 22.7403C39.1045 22.6986 38.9276 22.7633 38.7637 22.7503C38.5997 22.736 38.4473 22.6569 38.2948 22.5634C38.1438 22.4642 37.9942 22.3534 37.8475 22.1664C37.849 22.1406 37.8519 22.1147 37.8533 22.0902C38.0244 21.9852 38.1898 21.9637 38.3567 21.9637C38.522 21.968 38.6874 21.9953 38.8456 22.0989C39.0038 22.2053 39.1505 22.3937 39.3059 22.4828C39.3821 22.5303 39.4626 22.5576 39.5432 22.5749C39.5403 22.5605 39.5388 22.5447 39.5374 22.5303C39.0139 21.5581 38.348 20.6391 37.5383 19.8021C38.3049 20.5428 38.9564 21.3596 39.4943 22.2297C39.4928 22.2038 39.4813 22.1736 39.4813 22.1478C39.4684 21.9608 39.4597 21.7753 39.477 21.5998C39.5331 21.2561 39.6266 20.9239 39.8811 20.6434C39.9084 20.6535 39.9358 20.6636 39.9631 20.6736C40.2335 21.1497 40.3039 21.5653 40.3054 21.945C40.2939 22.1305 40.2522 22.3002 40.1961 22.4627C40.1501 22.631 40.0666 22.7791 39.9631 22.9157C39.9487 22.9359 39.9343 22.9546 39.9185 22.9747C40.2263 23.56 40.4852 24.1669 40.6937 24.7868C40.6951 24.781 40.6937 24.7739 40.6951 24.7667C40.734 24.5725 40.7742 24.3784 40.8361 24.1986C40.9799 23.852 41.1553 23.5226 41.4746 23.2767C41.4991 23.2925 41.5235 23.3069 41.548 23.3227C41.6932 23.8692 41.6587 24.3165 41.5624 24.7106C41.5048 24.9004 41.4171 25.0687 41.3193 25.2269C41.2301 25.3923 41.1079 25.5303 40.9698 25.6526C40.9655 25.6555 40.9612 25.6598 40.9583 25.6626C41.1165 26.2782 41.2287 26.9038 41.292 27.5351C41.3768 27.3496 41.4631 27.1655 41.5667 27.0001C41.7996 26.6694 42.0571 26.3602 42.4368 26.1617C42.4569 26.1818 42.477 26.202 42.4972 26.2221C42.5058 26.8146 42.3577 27.2691 42.1592 27.6574C42.0513 27.8429 41.9205 27.9997 41.781 28.1435C41.6587 28.2844 41.5106 28.3909 41.3538 28.4858C41.3696 29.1085 41.3409 29.7341 41.2646 30.3554C41.3912 30.1943 41.5163 30.0318 41.6544 29.8923C41.9751 29.5989 42.3145 29.3285 42.746 29.189C42.7618 29.2135 42.7762 29.2379 42.792 29.2624C42.6539 29.8707 42.3864 30.3094 42.0844 30.6675C41.9276 30.8372 41.7536 30.9724 41.5739 31.0917C41.43 31.1996 41.269 31.2686 41.105 31.3305C40.9828 31.9374 40.8145 32.5371 40.6017 33.1268C40.7642 32.9973 40.9238 32.865 41.0921 32.7543C41.4976 32.517 41.9133 32.3041 42.3907 32.2408C42.4008 32.2682 42.4094 32.2955 42.4195 32.3228C42.1247 32.9168 41.7392 33.3123 41.3351 33.6172C41.1295 33.7596 40.9152 33.8617 40.698 33.948C40.5398 34.0199 40.3744 34.0515 40.2105 34.0817C39.9516 34.6484 39.6467 35.2006 39.2987 35.7327C39.4914 35.6407 39.6827 35.5429 39.8754 35.471C40.3586 35.3128 40.8447 35.1762 41.3553 35.1977C41.3581 35.2279 41.361 35.2567 41.3639 35.2869C40.908 35.8334 40.4032 36.157 39.9027 36.3842C39.651 36.4863 39.3993 36.5467 39.1491 36.5899C38.9851 36.6258 38.8241 36.6201 38.6616 36.6215C38.3912 36.9667 38.0992 37.3003 37.7886 37.6225C37.6246 37.4585 37.4592 37.2931 37.2953 37.1292C37.6534 36.784 37.9856 36.4202 38.2934 36.0434C38.3092 35.9197 38.315 35.8003 38.2977 35.6867C38.2675 35.4465 38.1309 35.2394 38.0647 35.0151C38.0014 34.7893 37.9971 34.5506 38 34.3089C38.0072 34.0659 38.023 33.8228 38.1007 33.5539C38.1194 33.5453 38.1424 33.5366 38.1654 33.528Z" fill="#ED6362"/>
<path d="M31.4232 20C31.0611 20.9717 30.3943 21.8202 29.4212 22.5497C28.9248 22.9224 28.4571 23.1965 28 23.4387V26.2306C29.035 25.7723 30.002 25.227 30.8227 24.4888V36H34V20H31.4232Z" fill="#E95454"/>
</svg>
