<svg width="397" height="397" viewBox="0 0 397 397" fill="none" xmlns="http://www.w3.org/2000/svg">
<path d="M283.015 41.9401C278.897 36.9954 274.343 32.2694 269.465 27.8807C228.14 -9.32642 167.077 -9.29308 127.427 27.9799C123.304 31.8522 118.484 36.5457 113.983 41.9401C112.99 43.1319 112.447 44.6276 112.447 46.1768V244.756C112.447 248.41 115.412 251.375 119.067 251.375H277.931C281.585 251.375 284.551 248.41 284.551 244.756V46.176C284.55 44.6276 284.007 43.1311 283.015 41.9401ZM271.312 238.136H125.693V48.6185C129.307 44.488 133.146 40.7816 136.496 37.6235C171.082 5.12298 224.447 5.16253 260.608 37.7227C264.415 41.1515 268.008 44.8052 271.312 48.6115V238.136V238.136Z" fill="black"/>
<path d="M119.073 39.5573C117.696 39.5573 85.1494 39.7822 68.4886 58.9917C60.6184 68.0669 57.6067 79.6241 59.546 93.3524C59.9825 97.1518 67.5356 156.348 114.758 196.825C115.982 197.871 117.518 198.42 119.067 198.42C120.006 198.42 120.946 198.222 121.84 197.818C124.183 196.732 125.692 194.389 125.692 191.801V46.176C125.693 42.5224 122.727 39.5573 119.073 39.5573ZM112.448 176.239C78.4841 139.515 72.7517 92.2862 72.692 91.7706C72.6858 91.7109 72.6718 91.638 72.6656 91.5721C71.249 81.6494 73.1425 73.8389 78.464 67.6893C87.2871 57.482 103.392 54.2719 112.448 53.2592V176.239Z" fill="black"/>
<path d="M311.027 238.136H85.9704C71.3683 238.136 59.4932 250.012 59.4932 264.614C59.4932 279.216 71.3683 291.091 85.9704 291.091H311.027C325.629 291.091 337.504 279.216 337.504 264.614C337.504 250.012 325.629 238.136 311.027 238.136ZM311.027 277.853H85.9704C78.6694 277.853 72.7322 271.916 72.7322 264.614C72.7322 257.313 78.6694 251.375 85.9704 251.375H311.027C318.328 251.375 324.266 257.313 324.266 264.614C324.266 271.915 318.328 277.853 311.027 277.853Z" fill="black"/>
<path d="M337.399 305.633C334.771 291.177 325.98 281.387 312.636 278.05C312.106 277.918 311.571 277.852 311.028 277.852H79.3512C78.8084 277.852 78.2719 277.918 77.743 278.05C64.4048 281.387 55.608 291.176 52.9802 305.626C51.4379 314.099 51.0409 326.126 57.9179 335.301C68.5554 349.486 70.2427 362.109 62.9354 372.826C59.6718 377.618 59.3143 383.754 62.0018 388.844C64.663 393.876 69.8659 397 75.5851 397H85.9575C99.064 397 107.834 393.042 112.011 385.237C119.458 371.324 107.689 351.624 105.061 347.54C100.52 336.771 99.1431 328.165 101.196 323.274C102.129 321.05 103.777 319.54 106.385 318.521C110.767 316.8 116.288 317.866 121.146 321.334C147.517 340.16 190.497 337.545 191.874 337.426L198.056 337.413C199.883 337.545 242.848 340.166 269.22 321.334C274.079 317.859 279.606 316.813 283.974 318.521C286.589 319.541 288.238 321.05 289.17 323.274C291.222 328.165 289.852 336.77 285.305 347.54C282.677 351.624 270.908 371.317 278.354 385.237C282.538 393.042 291.302 397 304.408 397H314.794C320.513 397 325.716 393.876 328.376 388.838C331.064 383.755 330.706 377.618 327.443 372.826C320.142 362.11 321.83 349.486 332.46 335.301C337.901 328.053 339.603 317.787 337.399 305.633ZM321.863 327.358C303.924 351.287 309.048 369.345 316.501 380.279C317.196 381.299 316.905 382.206 316.666 382.649C316.402 383.152 315.858 383.755 314.787 383.755H304.401C299.013 383.755 292.142 382.927 290.031 378.989C286.748 372.886 293.089 359.734 296.677 354.326C296.896 353.988 297.094 353.631 297.246 353.266C303.66 338.3 305.011 326.822 301.377 318.151C299.067 312.637 294.717 308.494 288.794 306.184C285.868 305.046 282.75 304.483 279.573 304.483C273.463 304.483 267.135 306.562 261.535 310.552C239.049 326.611 199.34 324.228 198.505 324.182L191.449 324.195C191.066 324.221 151.343 326.617 128.851 310.552C120.331 304.476 110.138 302.847 101.579 306.184C95.6553 308.494 91.3062 312.637 88.9963 318.151C85.362 326.816 86.7128 338.307 93.1268 353.266C93.2857 353.644 93.4773 353.994 93.7029 354.332C97.1518 359.501 103.605 372.892 100.349 378.982C98.2374 382.927 91.3667 383.755 85.9715 383.755H75.5851C74.5128 383.755 73.97 383.152 73.7056 382.649C73.4675 382.206 73.176 381.298 73.8707 380.279C81.3238 369.344 86.4406 351.287 68.5089 327.358C64.2923 321.725 65.1329 312.809 66.0067 307.99C67.6614 298.849 72.3145 293.315 80.2119 291.084H310.16C318.051 293.315 322.704 298.855 324.365 307.99C325.245 312.809 326.08 321.732 321.863 327.358Z" fill="black"/>
<path d="M123.376 186.771C114.943 179.549 107.503 171.281 100.626 161.512C99.381 159.751 97.3689 158.705 95.211 158.705H92.5894C92.0668 158.705 79.6217 158.751 67.1248 162.412C57.7914 165.146 50.5035 172.4 47.6245 181.807C44.6989 191.372 46.7444 201.645 53.0856 209.283C65.5693 224.323 72.7316 237.256 72.7316 244.756C72.7316 248.41 75.6967 251.375 79.3511 251.375H119.067C122.72 251.375 125.686 248.41 125.686 244.75V191.795C125.686 189.862 124.846 188.028 123.376 186.771ZM112.448 238.136H85.1565C82.8264 228.062 75.492 215.552 63.2796 200.83C59.7911 196.627 58.6722 190.967 60.2874 185.678C61.8824 180.469 65.7283 176.616 70.8521 175.113C79.8606 172.472 89.1676 172.029 91.8349 171.956C98.09 180.462 105.007 188.127 112.447 194.799V238.136H112.448Z" fill="black"/>
<path d="M328.515 58.9909C311.854 39.7752 279.307 39.5565 277.93 39.5565C274.276 39.5565 271.311 42.5216 271.311 46.176V191.801C271.311 194.389 272.819 196.732 275.163 197.818C276.05 198.222 276.989 198.42 277.929 198.42C279.478 198.42 281.014 197.87 282.245 196.825C329.467 156.348 337.02 97.1518 337.457 93.3523C339.398 79.6303 336.386 68.0661 328.515 58.9909ZM324.332 91.5713C324.319 91.631 324.312 91.7039 324.305 91.7698C324.253 92.2862 318.52 139.515 284.55 176.238V53.2592C293.605 54.2719 309.709 57.482 318.533 67.6892C323.855 73.8381 325.748 81.6494 324.332 91.5713Z" fill="black"/>
<path d="M349.379 181.819C346.5 172.407 339.212 165.152 329.872 162.418C317.375 158.751 304.931 158.711 304.407 158.711H301.786C299.628 158.711 297.616 159.757 296.371 161.518C289.493 171.288 282.054 179.549 273.62 186.777C272.151 188.035 271.311 189.868 271.311 191.801V244.755C271.311 248.409 274.276 251.375 277.93 251.375H317.646C321.3 251.375 324.266 248.41 324.266 244.762C324.266 237.269 331.428 224.335 343.912 209.29C350.253 201.65 352.299 191.377 349.379 181.819ZM333.725 200.823C321.505 215.551 314.171 228.068 311.842 238.136H284.55V194.793C291.99 188.121 298.907 180.455 305.163 171.95C307.843 172.029 317.137 172.472 326.146 175.107C331.269 176.61 335.122 180.462 336.717 185.672C338.331 190.961 337.213 196.62 333.725 200.823Z" fill="black"/>
<path d="M283.855 241.797C282.968 240.023 261.442 198.421 198.499 198.421C135.556 198.421 114.03 240.023 113.143 241.797C112.118 243.849 112.23 246.285 113.435 248.237C114.646 250.184 116.771 251.375 119.068 251.375H277.931C280.228 251.375 282.353 250.183 283.564 248.237C284.768 246.285 284.881 243.849 283.855 241.797ZM131.909 238.136C141.454 227.433 161.749 211.659 198.499 211.659C235.257 211.659 255.558 227.44 265.09 238.136H131.909Z" fill="black"/>
<path d="M178.641 52.7956H152.163C148.51 52.7956 145.544 55.7607 145.544 59.4151C145.544 63.0695 148.509 66.0346 152.163 66.0346H178.641C182.294 66.0346 185.26 63.0695 185.26 59.4151C185.26 55.7607 182.295 52.7956 178.641 52.7956Z" fill="black"/>
<path d="M165.403 39.5573C161.749 39.5573 158.783 42.5224 158.783 46.1768V72.6541C158.783 76.3077 161.748 79.2736 165.403 79.2736C169.056 79.2736 172.022 76.3085 172.022 72.6541V46.176C172.022 42.5224 169.056 39.5573 165.403 39.5573Z" fill="black"/>
<path d="M244.834 52.7956H218.357C214.703 52.7956 211.737 55.7607 211.737 59.4151C211.737 63.0695 214.702 66.0346 218.357 66.0346H244.834C248.488 66.0346 251.454 63.0695 251.454 59.4151C251.454 55.7607 248.488 52.7956 244.834 52.7956Z" fill="black"/>
<path d="M231.595 39.5573C227.941 39.5573 224.976 42.5224 224.976 46.1768V72.6541C224.976 76.3077 227.941 79.2736 231.595 79.2736C235.25 79.2736 238.215 76.3085 238.215 72.6541V46.176C238.215 42.5224 235.25 39.5573 231.595 39.5573Z" fill="black"/>
<path d="M178.641 105.75H152.163C148.51 105.75 145.544 108.715 145.544 112.37C145.544 116.023 148.509 118.989 152.163 118.989H178.641C182.294 118.989 185.26 116.024 185.26 112.37C185.26 108.716 182.295 105.75 178.641 105.75Z" fill="black"/>
<path d="M165.403 92.5118C161.749 92.5118 158.783 95.4769 158.783 99.1314V125.609C158.783 129.262 161.748 132.228 165.403 132.228C169.056 132.228 172.022 129.263 172.022 125.609V99.1314C172.022 95.4769 169.056 92.5118 165.403 92.5118Z" fill="black"/>
<path d="M244.834 105.75H218.357C214.703 105.75 211.737 108.715 211.737 112.37C211.737 116.023 214.702 118.989 218.357 118.989H244.834C248.488 118.989 251.454 116.024 251.454 112.37C251.454 108.716 248.488 105.75 244.834 105.75Z" fill="black"/>
<path d="M231.595 92.5118C227.941 92.5118 224.976 95.4769 224.976 99.1314V125.609C224.976 129.262 227.941 132.228 231.595 132.228C235.25 132.228 238.215 129.263 238.215 125.609V99.1314C238.215 95.4769 235.25 92.5118 231.595 92.5118Z" fill="black"/>
<path d="M178.641 158.705H152.163C148.51 158.705 145.544 161.67 145.544 165.324C145.544 168.979 148.509 171.944 152.163 171.944H178.641C182.294 171.944 185.26 168.979 185.26 165.324C185.26 161.67 182.295 158.705 178.641 158.705Z" fill="black"/>
<path d="M165.403 145.466C161.749 145.466 158.783 148.431 158.783 152.086V178.563C158.783 182.217 161.748 185.183 165.403 185.183C169.056 185.183 172.022 182.218 172.022 178.563V152.085C172.022 148.431 169.056 145.466 165.403 145.466Z" fill="black"/>
<path d="M244.834 158.705H218.357C214.703 158.705 211.737 161.67 211.737 165.324C211.737 168.979 214.702 171.944 218.357 171.944H244.834C248.488 171.944 251.454 168.979 251.454 165.324C251.454 161.67 248.488 158.705 244.834 158.705Z" fill="black"/>
<path d="M231.595 145.466C227.941 145.466 224.976 148.431 224.976 152.086V178.563C224.976 182.217 227.941 185.183 231.595 185.183C235.25 185.183 238.215 182.218 238.215 178.563V152.085C238.215 148.431 235.25 145.466 231.595 145.466Z" fill="black"/>
</svg>
