<svg width="397" height="397" viewBox="0 0 397 397" fill="none" xmlns="http://www.w3.org/2000/svg">
<path d="M298.812 35.668H9.01846C4.03786 35.668 0 39.7058 0 44.6864C0 49.667 4.03786 53.7049 9.01846 53.7049H18.6381V261.129C18.6381 266.11 22.676 270.148 27.6566 270.148H54.712V279.166C54.712 284.147 58.7499 288.185 63.7304 288.185C68.711 288.185 72.7489 284.147 72.7489 279.166V270.148H235.081V279.166C235.081 284.147 239.119 288.185 244.1 288.185C249.08 288.185 253.118 284.147 253.118 279.166V270.148H280.173C285.154 270.148 289.192 266.11 289.192 261.129V53.7049H298.812C303.792 53.7049 307.83 49.667 307.83 44.6864C307.83 39.7058 303.792 35.668 298.812 35.668ZM271.155 125.853V179.963H162.933V125.853H271.155ZM144.897 179.963H36.6751V125.853H144.897V179.963ZM36.6751 198H144.897V252.111H36.6751V198ZM162.933 252.111V198H271.155V252.111H162.933ZM271.155 107.816H36.6751V53.7049H271.155V107.816Z" fill="black"/>
<path d="M81.7675 234.074H99.8044C104.785 234.074 108.823 230.036 108.823 225.056C108.823 220.075 104.785 216.037 99.8044 216.037H81.7675C76.7869 216.037 72.749 220.075 72.749 225.056C72.749 230.036 76.7869 234.074 81.7675 234.074Z" fill="black"/>
<path d="M226.063 216.037H208.026C203.045 216.037 199.007 220.075 199.007 225.056C199.007 230.036 203.045 234.074 208.026 234.074H226.063C231.043 234.074 235.081 230.036 235.081 225.056C235.081 220.075 231.043 216.037 226.063 216.037Z" fill="black"/>
<path d="M208.026 161.926H226.063C231.043 161.926 235.081 157.889 235.081 152.908C235.081 147.927 231.043 143.889 226.063 143.889H208.026C203.045 143.889 199.007 147.927 199.007 152.908C199.007 157.889 203.045 161.926 208.026 161.926Z" fill="black"/>
<path d="M81.7675 161.926H99.8044C104.785 161.926 108.823 157.889 108.823 152.908C108.823 147.927 104.785 143.889 99.8044 143.889H81.7675C76.7869 143.889 72.749 147.927 72.749 152.908C72.749 157.889 76.7869 161.926 81.7675 161.926Z" fill="black"/>
<path d="M117.841 89.7787H189.989C194.969 89.7787 199.007 85.7409 199.007 80.7603C199.007 75.7797 194.969 71.7418 189.989 71.7418H117.841C112.861 71.7418 108.823 75.7797 108.823 80.7603C108.823 85.7409 112.861 89.7787 117.841 89.7787Z" fill="black"/>
</svg>
