<svg width="32" height="32" viewBox="0 0 32 32" fill="none" xmlns="http://www.w3.org/2000/svg">
<g clip-path="url(#clip0)">
<path d="M30.9181 6.30291L21.2223 15.9997L30.9181 25.6961C32.3603 27.1388 32.3603 29.4759 30.9181 30.9186C30.1975 31.6392 29.2528 31.9998 28.3085 31.9998C27.3626 31.9998 26.4178 31.6398 25.6978 30.9186L15.9998 21.2212L6.30262 30.9185C5.58211 31.6391 4.63727 31.9997 3.69215 31.9997C2.74731 31.9997 1.80311 31.6397 1.08196 30.9185C-0.360245 29.4764 -0.360245 27.1393 1.08196 25.696L10.7775 15.9996L1.08141 6.30291C-0.360796 4.86071 -0.360796 2.52309 1.08141 1.08089C2.52334 -0.360214 4.85959 -0.360214 6.30207 1.08089L15.9997 10.7777L25.6967 1.08089C27.1394 -0.360214 29.4759 -0.360214 30.9176 1.08089C32.3604 2.52309 32.3603 4.86071 30.9181 6.30291Z" fill="#FFD200"/>
</g>
<defs>
<clipPath id="clip0">
<rect width="32" height="32" fill="white"/>
</clipPath>
</defs>
</svg>
