<svg width="397" height="397" viewBox="0 0 397 397" fill="none" xmlns="http://www.w3.org/2000/svg">
<g clip-path="url(#clip0)">
<path d="M378.051 228.448C378.685 226.683 379.037 224.785 379.037 222.804V213.604C379.037 208.239 376.502 203.458 372.57 200.385L378.624 182.157C389.825 148.428 383.677 113.198 361.754 85.4993C359.761 82.9816 356.106 82.557 353.589 84.5485C351.073 86.5407 350.647 90.1958 352.639 92.7119C372.087 117.283 377.537 148.55 367.593 178.493L361.504 196.83H349.256L356.563 174.83C366.448 145.063 358.985 114.177 336.598 92.2082C321.37 77.2638 301.615 69.0337 280.972 69.0337C278.829 69.0337 276.639 69.1345 274.432 69.3196C270.165 64.7509 264.492 61.5111 258.11 60.3147C285.374 53.3562 313.332 58.9974 335.973 76.3207C337.027 77.1274 338.268 77.5172 339.5 77.5172C341.248 77.5172 342.976 76.7314 344.12 75.2367C346.071 72.6873 345.586 69.0399 343.036 67.0895C315.733 46.1994 281.584 40.363 248.881 50.8735C243.723 43.5656 235.47 38.8729 226.279 38.349C225.189 37.1193 224.004 35.9484 222.714 34.852C208.271 22.567 186.43 24.2392 174.026 38.5807L173.618 39.0519L173.05 38.7946C159.018 32.4553 142.845 36.3119 133.007 47.2037C115.892 44.3598 98.374 45.9065 82.1215 51.7259C65.6521 57.6228 50.7364 67.7536 38.9883 81.0235C14.3083 108.9 6.6028 146.707 18.3764 182.158L24.4298 200.386C20.498 203.458 17.9634 208.24 17.9634 213.605V222.805C17.9634 224.786 18.3198 226.683 18.9529 228.448C8.14714 230.682 0 240.272 0 251.73V312.571C0 325.68 10.6655 336.346 23.775 336.346H35.045L38.2623 353.703C40.0523 363.361 48.4807 370.371 58.3031 370.371H89.4667C99.2891 370.371 107.718 363.361 109.508 353.704L112.725 336.347H285.049L288.267 353.704C290.057 363.361 298.486 370.371 308.307 370.371H339.471C349.293 370.371 357.723 363.361 359.512 353.704L362.729 336.347H373.224C386.334 336.347 396.999 325.681 396.999 312.572V251.731C397 240.273 388.854 230.684 378.051 228.448V228.448ZM181.467 218.482V208.454H216.308V218.482C216.308 221.888 217.124 225.103 218.563 227.954H179.212C180.651 225.104 181.467 221.888 181.467 218.482V218.482ZM227.931 218.482V206.09C227.931 200.867 232.18 196.618 237.403 196.618H309.168C314.391 196.618 318.641 200.866 318.641 206.09V218.482C318.641 223.705 314.391 227.954 309.168 227.954H237.403C232.18 227.954 227.931 223.705 227.931 218.482V218.482ZM330.264 218.482V208.454H362.263C365.103 208.454 367.413 210.764 367.413 213.604V222.804C367.413 225.644 365.103 227.954 362.263 227.954H328.009C329.448 225.104 330.264 221.888 330.264 218.482V218.482ZM328.457 100.505C347.603 119.294 353.985 145.709 345.531 171.167L337.008 196.83H328.118C324.682 189.827 317.481 184.995 309.168 184.995H237.403C229.091 184.995 221.889 189.828 218.453 196.83H179.321C175.885 189.827 168.683 184.995 160.372 184.995H123.862C120.652 184.995 118.05 187.597 118.05 190.806C118.05 194.016 120.652 196.618 123.862 196.618H160.372C165.595 196.618 169.844 200.866 169.844 206.09V218.482C169.844 223.705 165.595 227.954 160.372 227.954H88.6066C83.3838 227.954 79.1344 223.705 79.1344 218.482V206.09C79.1344 200.867 83.3831 196.618 88.6066 196.618H99.0939C102.303 196.618 104.905 194.016 104.905 190.806C104.905 187.597 102.303 184.995 99.0939 184.995H88.6066C80.2944 184.995 73.0926 189.828 69.6575 196.83H59.9916L51.4686 171.167C43.0139 145.709 49.3974 119.293 68.5432 100.504C81.5853 87.7053 98.4492 80.657 116.029 80.657C119.215 80.657 122.465 80.9189 125.731 81.397C128.488 89.7828 134.439 97.107 142.939 101.443L179.517 120.106C182.071 121.41 184.828 122.037 187.561 122.037C192.853 122.037 198.053 119.686 201.51 115.342L204.322 111.81C206.962 117.053 212.394 120.53 218.427 120.53C218.578 120.53 218.731 120.528 218.883 120.524L253.486 119.524C269.693 119.056 282.434 105.989 282.493 89.7743C282.505 86.6004 282.008 83.5388 281.09 80.6585C298.626 80.6926 315.443 87.7356 328.457 100.505ZM34.7373 227.954C31.8974 227.954 29.5867 225.644 29.5867 222.804V213.604C29.5867 210.764 31.8974 208.454 34.7373 208.454H67.5111V218.482C67.5111 221.888 68.327 225.103 69.766 227.954H34.7373ZM242.054 63.1756L243.184 67.1523C243.887 69.6265 246.133 71.3444 248.706 71.3746L252.839 71.4235C262.817 71.5412 270.905 79.7558 270.87 89.734C270.834 99.6386 263.051 107.621 253.15 107.907L218.547 108.907C216.587 108.955 214.818 107.611 214.368 105.689L213.195 100.667L227.375 82.8553C234.477 73.9341 236.515 62.6789 233.837 52.4791C237.735 54.7906 240.736 58.5402 242.054 63.1756V63.1756ZM158.84 47.354C162.002 47.354 165.21 48.0072 168.265 49.3873L172.785 51.4299C175.129 52.4899 177.89 51.8816 179.573 49.9359L182.818 46.1847C191.063 36.6513 205.582 35.5393 215.184 43.7066C224.714 51.8127 226.074 65.8288 218.282 75.6171L192.418 108.106C190.602 110.388 187.397 111.081 184.799 109.755L148.222 91.0924C137.152 85.4442 132.563 72.1828 137.771 60.9028L137.851 60.73C141.73 52.3287 150.112 47.354 158.84 47.354V47.354ZM47.6911 88.729C67.9807 65.8125 96.9281 54.6588 126.381 58.018C124.918 61.7707 124.147 65.6366 124.02 69.4692C121.337 69.1926 118.665 69.0353 116.028 69.0353C95.3853 69.0353 75.6303 77.2653 60.4015 92.2098C38.0151 114.179 30.5522 145.065 40.4374 174.832L47.7438 196.832H35.4967L29.4077 178.495C18.9552 147.023 25.7905 113.465 47.6911 88.729V88.729ZM98.0795 351.585C97.3101 355.735 93.6883 358.748 89.4675 358.748H58.3031C54.0816 358.748 50.4597 355.736 49.6911 351.585L46.8658 336.346H100.904L98.0795 351.585ZM348.084 351.586C347.314 355.736 343.693 358.748 339.472 358.748H308.308C304.087 358.748 300.465 355.736 299.696 351.585L296.871 336.346H350.909L348.084 351.586ZM373.225 324.723H23.775C17.0746 324.723 11.6233 319.271 11.6233 312.571V306.348H312.069C315.278 306.348 317.88 303.746 317.88 300.536C317.88 297.326 315.278 294.724 312.069 294.724H11.6233V251.73C11.6233 245.029 17.0746 239.577 23.775 239.577H373.225C379.925 239.577 385.377 245.029 385.377 251.73V294.724H336.836C333.626 294.724 331.024 297.326 331.024 300.536C331.024 303.746 333.626 306.348 336.836 306.348H385.377V312.571C385.377 319.271 379.925 324.723 373.225 324.723V324.723Z" fill="black"/>
<path d="M214.959 152.181H204.699V148.039C204.699 144.83 202.097 142.228 198.887 142.228C195.678 142.228 193.076 144.83 193.076 148.039V152.181H182.816C179.606 152.181 177.004 154.783 177.004 157.993C177.004 161.202 179.606 163.804 182.816 163.804H193.076V167.946C193.076 171.156 195.678 173.758 198.887 173.758C202.097 173.758 204.699 171.156 204.699 167.946V163.804H214.959C218.169 163.804 220.771 161.202 220.771 157.993C220.771 154.783 218.169 152.181 214.959 152.181Z" fill="black"/>
<path d="M115.166 128.009H104.905V123.867C104.905 120.657 102.303 118.055 99.0937 118.055C95.8841 118.055 93.2821 120.657 93.2821 123.867V128.009H83.0226C79.813 128.009 77.2109 130.611 77.2109 133.82C77.2109 137.03 79.813 139.632 83.0226 139.632H93.2821V143.774C93.2821 146.983 95.8841 149.585 99.0937 149.585C102.303 149.585 104.905 146.983 104.905 143.774V139.632H115.166C118.375 139.632 120.977 137.03 120.977 133.82C120.977 130.611 118.375 128.009 115.166 128.009Z" fill="black"/>
<path d="M276.797 133.82C276.797 137.03 279.399 139.632 282.609 139.632H292.869V143.774C292.869 146.983 295.471 149.585 298.681 149.585C301.89 149.585 304.493 146.983 304.493 143.774V139.632H314.752C317.962 139.632 320.564 137.03 320.564 133.82C320.564 130.611 317.962 128.009 314.752 128.009H304.493V123.867C304.493 120.657 301.89 118.055 298.681 118.055C295.471 118.055 292.869 120.657 292.869 123.867V128.009H282.609C279.399 128.009 276.797 130.611 276.797 133.82Z" fill="black"/>
</g>
<defs>
<clipPath id="clip0">
<rect width="397" height="397" fill="white"/>
</clipPath>
</defs>
</svg>
