<svg width="24" height="24" viewBox="0 0 16 16" fill="none" xmlns="http://www.w3.org/2000/svg">
<path d="M14.6667 0.93335H1.33334C0.597313 0.934193 0.000875 1.53066 0 2.26666V12.6667C0.000875 13.2999 0.446344 13.8455 1.06666 13.973V14.2667C1.06712 14.7083 1.42503 15.0662 1.86666 15.0667H3.46666C3.90828 15.0662 4.26619 14.7083 4.26666 14.2667V14H11.7333V14.2667C11.7338 14.7083 12.0917 15.0662 12.5333 15.0667H14.1333C14.5749 15.0662 14.9328 14.7083 14.9333 14.2667V13.973C15.5536 13.8455 15.9991 13.2999 16 12.6667V2.26666C15.9991 1.53066 15.4027 0.934193 14.6667 0.93335ZM3.73334 14.2667C3.73316 14.4138 3.61387 14.5331 3.46669 14.5333H1.86669C1.7195 14.5331 1.60022 14.4138 1.60003 14.2667V14H3.73338V14.2667H3.73334ZM14.4 14.2667C14.3998 14.4138 14.2805 14.5331 14.1333 14.5333H12.5333C12.3862 14.5331 12.2669 14.4138 12.2667 14.2667V14H14.4V14.2667ZM15.4667 12.6667C15.4662 13.1083 15.1083 13.4662 14.6667 13.4667H1.33334C0.891719 13.4662 0.533812 13.1083 0.533344 12.6667V2.26666C0.533812 1.82504 0.891719 1.46713 1.33334 1.46666H14.6667C15.1083 1.46713 15.4662 1.82504 15.4667 2.26666V12.6667H15.4667Z" fill="black"/>
<path d="M14.6667 2H1.33337C1.18609 2 1.06671 2.11937 1.06671 2.26666V12.6667C1.06671 12.8139 1.18609 12.9333 1.33337 12.9333H14.6667C14.814 12.9333 14.9334 12.8139 14.9334 12.6667V2.26666C14.9334 2.11941 14.814 2 14.6667 2ZM14.4 12.4H1.60002V9.46666H14.4V12.4ZM14.4 8.93334H1.60002V6H14.4V8.93334ZM14.4 5.46666H1.60002V2.53334H14.4V5.46666Z" fill="black"/>
<path d="M8.00001 4.66668C8.44182 4.66668 8.80001 4.30853 8.80001 3.86668C8.79954 3.42506 8.44164 3.06715 8.00001 3.06668C7.5582 3.06668 7.20001 3.42487 7.20001 3.86668C7.20001 4.3085 7.5582 4.66668 8.00001 4.66668ZM8.00001 3.60003C8.14729 3.60003 8.26667 3.7194 8.26667 3.86668C8.26648 4.01387 8.1472 4.13315 8.00001 4.13334C7.85273 4.13334 7.73336 4.01396 7.73336 3.86668C7.73336 3.7194 7.85273 3.60003 8.00001 3.60003Z" fill="black"/>
<path d="M8.00001 8.13335C8.44182 8.13335 8.80001 7.77519 8.80001 7.33335C8.79954 6.89173 8.44164 6.53382 8.00001 6.53336C7.5582 6.53336 7.20001 6.89154 7.20001 7.33335C7.20001 7.77516 7.5582 8.13335 8.00001 8.13335ZM8.00001 7.06667C8.14729 7.06667 8.26667 7.18607 8.26667 7.33332C8.26648 7.48051 8.1472 7.59979 8.00001 7.59998C7.85273 7.59998 7.73336 7.4806 7.73336 7.33332C7.73336 7.18604 7.85273 7.06667 8.00001 7.06667Z" fill="black"/>
<path d="M8.00001 11.6C8.44182 11.6 8.80001 11.2418 8.80001 10.8C8.80001 10.3582 8.44182 10 8.00001 10C7.5582 10 7.20001 10.3582 7.20001 10.8C7.20048 11.2416 7.55839 11.5995 8.00001 11.6ZM8.00001 10.5333C8.14729 10.5333 8.26667 10.6528 8.26667 10.8C8.26667 10.9473 8.14729 11.0667 8.00001 11.0667C7.85273 11.0667 7.73336 10.9473 7.73336 10.8C7.73354 10.6528 7.85282 10.5335 8.00001 10.5333Z" fill="black"/>
</svg>
