<svg width="33" height="34" viewBox="0 0 33 34" fill="none" xmlns="http://www.w3.org/2000/svg">
<path d="M2.99998 3.17723C0.485314 5.78924 0.999981 8.56391 0.999981 16.9932C0.999981 23.9933 -0.221353 31.0106 6.17065 32.6626C8.16665 33.1759 25.852 33.1759 27.8453 32.6599C30.5066 31.9733 32.672 29.8146 32.968 26.0506C33.0093 25.5253 33.0093 8.47057 32.9666 7.93457C32.652 3.92524 30.184 1.61457 26.932 1.14657C26.1866 1.03857 26.0373 1.00657 22.2133 0.999899C8.64931 1.00657 5.67598 0.402565 2.99998 3.17723Z" fill="url(#paint0_linear)"/>
<path d="M16.9974 5.18523C12.156 5.18523 7.5587 4.75456 5.8027 9.26123C5.07737 11.1226 5.1827 13.5399 5.1827 17.0012C5.1827 20.0386 5.08537 22.8932 5.8027 24.7399C7.5547 29.2492 12.1894 28.8172 16.9947 28.8172C21.6307 28.8172 26.4107 29.2999 28.188 24.7399C28.9147 22.8599 28.808 20.4786 28.808 17.0012C28.808 12.3852 29.0627 9.40523 26.824 7.1679C24.5574 4.90123 21.492 5.18523 16.992 5.18523H16.9974ZM15.9387 7.31456C26.0374 7.29856 27.3227 6.1759 26.6134 21.7719C26.3614 27.2879 22.1614 26.6826 16.9987 26.6826C7.58537 26.6826 7.3147 26.4132 7.3147 16.9959C7.3147 7.46923 8.06137 7.3199 15.9387 7.3119V7.31456ZM23.304 9.2759C22.5214 9.2759 21.8867 9.91056 21.8867 10.6932C21.8867 11.4759 22.5214 12.1106 23.304 12.1106C24.0867 12.1106 24.7214 11.4759 24.7214 10.6932C24.7214 9.91056 24.0867 9.2759 23.304 9.2759ZM16.9974 10.9332C13.6467 10.9332 10.9307 13.6506 10.9307 17.0012C10.9307 20.3519 13.6467 23.0679 16.9974 23.0679C20.348 23.0679 23.0627 20.3519 23.0627 17.0012C23.0627 13.6506 20.348 10.9332 16.9974 10.9332ZM16.9974 13.0626C22.204 13.0626 22.2107 20.9399 16.9974 20.9399C11.792 20.9399 11.784 13.0626 16.9974 13.0626Z" fill="white"/>
<defs>
<linearGradient id="paint0_linear" x1="3.06134" y1="30.956" x2="32.802" y2="5.21589" gradientUnits="userSpaceOnUse">
<stop stopColor="#FFDD55"/>
<stop offset="0.5" stopColor="#FF543E"/>
<stop offset="1" stopColor="#C837AB"/>
</linearGradient>
</defs>
</svg>
