<svg width="32" height="17" viewBox="0 0 32 17" fill="none" xmlns="http://www.w3.org/2000/svg">
<path d="M30.5454 6.93942H4.9661L9.75572 2.54884C10.3238 2.02821 10.3238 1.18395 9.75572 0.663233C9.18777 0.14261 8.26675 0.14261 7.6987 0.663233L0.425975 7.32991C-0.142073 7.85053 -0.142073 8.6948 0.425975 9.21551L7.6987 15.8822C7.98282 16.1425 8.35499 16.2728 8.72726 16.2728C9.09953 16.2728 9.47179 16.1425 9.75572 15.8822C10.3238 15.3616 10.3238 14.5173 9.75572 13.9966L4.9661 9.60609H30.5454C31.3487 9.60609 32 9.00911 32 8.27276C32 7.5364 31.3487 6.93942 30.5454 6.93942Z" fill="#FFD200"/>
</svg>
