<svg width="32" height="16" viewBox="0 0 32 16" fill="none" xmlns="http://www.w3.org/2000/svg">
<path d="M28.9032 0.7742H3.09677C1.39355 0.7742 0 1.47097 0 2.32259C0 3.1742 1.39355 3.87097 3.09677 3.87097H28.9032C30.6065 3.87097 32 3.1742 32 2.32259C32 1.47097 30.6065 0.7742 28.9032 0.7742Z" fill="#FFD200"/>
<path d="M28.9032 6.45163H3.09677C1.39355 6.45163 0 7.1484 0 8.00002C0 8.85163 1.39355 9.5484 3.09677 9.5484H28.9032C30.6065 9.5484 32 8.85163 32 8.00002C32 7.1484 30.6065 6.45163 28.9032 6.45163Z" fill="#FFD200"/>
<path d="M28.9032 12.129H3.09677C1.39355 12.129 0 12.8258 0 13.6774C0 14.529 1.39355 15.2258 3.09677 15.2258H28.9032C30.6065 15.2258 32 14.529 32 13.6774C32 12.8258 30.6065 12.129 28.9032 12.129Z" fill="#FFD200"/>
</svg>
