<svg width="397" height="397" viewBox="0 0 397 397" fill="none" xmlns="http://www.w3.org/2000/svg">
<path d="M263.478 25.7336H132.147C130.503 25.7355 128.926 26.3896 127.763 27.5525C126.6 28.7154 125.946 30.2922 125.944 31.9368V328.31C125.946 329.954 126.6 331.531 127.763 332.694C128.926 333.857 130.503 334.511 132.147 334.513H263.478C265.122 334.511 266.699 333.857 267.862 332.694C269.025 331.531 269.679 329.954 269.681 328.31V31.9368C269.679 30.2922 269.025 28.7154 267.862 27.5525C266.699 26.3896 265.122 25.7355 263.478 25.7336V25.7336ZM260.376 325.208H135.249V35.0383H260.376V325.208Z" fill="black"/>
<path d="M83.6206 196.9C82.3867 196.9 81.2034 197.391 80.3309 198.263C79.4584 199.135 78.9683 200.319 78.9683 201.553V381.173C78.9683 385.624 82.3024 389.246 86.4074 389.246H310.593C314.695 389.246 318.032 385.624 318.032 381.173V201.553C318.032 200.319 317.542 199.135 316.669 198.263C315.797 197.391 314.614 196.9 313.38 196.9C312.146 196.9 310.962 197.391 310.09 198.263C309.218 199.135 308.727 200.319 308.727 201.553V216.554L286.103 216.533V15.5078C286.101 13.452 285.283 11.4811 283.829 10.0275C282.376 8.57382 280.405 7.75616 278.349 7.75391H117.276C115.221 7.75616 113.25 8.57382 111.796 10.0275C110.342 11.4811 109.525 13.452 109.523 15.5078V216.481L88.2768 216.515V201.55C88.2764 200.939 88.1556 200.334 87.9214 199.769C87.6872 199.205 87.3441 198.692 86.9117 198.261C86.4793 197.829 85.9661 197.486 85.4015 197.253C84.8368 197.02 84.2316 196.9 83.6206 196.9V196.9ZM118.827 17.0586H276.798V344.575H118.827V17.0586ZM109.523 225.785V346.126C109.525 348.182 110.343 350.152 111.796 351.606C113.25 353.06 115.221 353.877 117.276 353.88H278.349C280.405 353.877 282.376 353.06 283.829 351.606C285.283 350.152 286.101 348.182 286.103 346.126V225.838L308.727 225.859V379.941H88.2729V225.82L109.523 225.785Z" fill="black"/>
<path d="M176.552 134.513C177.171 134.514 177.785 134.391 178.356 134.152C178.927 133.912 179.444 133.56 179.878 133.118L221.944 90.1368C222.807 89.2549 223.285 88.0663 223.271 86.8324C223.258 85.5985 222.755 84.4204 221.873 83.5573C221.436 83.1299 220.92 82.7927 220.353 82.565C219.786 82.3373 219.18 82.2235 218.569 82.2301C217.335 82.2434 216.157 82.7463 215.294 83.6282L173.228 126.608C172.586 127.263 172.153 128.092 171.981 128.992C171.809 129.892 171.906 130.823 172.261 131.667C172.616 132.512 173.213 133.233 173.976 133.74C174.74 134.247 175.636 134.517 176.552 134.517V134.513Z" fill="black"/>
<path d="M217.157 115.598L195.21 137.546C194.772 137.977 194.424 138.49 194.186 139.056C193.947 139.622 193.823 140.229 193.821 140.843C193.818 141.458 193.938 142.066 194.172 142.634C194.405 143.202 194.75 143.718 195.184 144.152C195.618 144.586 196.134 144.93 196.702 145.164C197.27 145.398 197.878 145.517 198.493 145.514C199.107 145.512 199.714 145.387 200.28 145.149C200.846 144.91 201.359 144.562 201.79 144.124L223.737 122.176C224.175 121.745 224.523 121.232 224.762 120.666C225 120.1 225.124 119.493 225.126 118.878C225.129 118.264 225.01 117.656 224.776 117.088C224.542 116.52 224.198 116.004 223.763 115.57C223.329 115.136 222.813 114.792 222.245 114.558C221.677 114.324 221.069 114.205 220.455 114.208C219.841 114.21 219.233 114.334 218.667 114.573C218.101 114.811 217.588 115.16 217.157 115.598V115.598Z" fill="black"/>
</svg>
