<svg width="397" height="397" viewBox="0 0 397 397" fill="none" xmlns="http://www.w3.org/2000/svg">
<path d="M363.917 0H33.0833C14.8213 0.0215042 0.0215042 14.8213 0 33.0833V324.217C0 327.871 2.96261 330.833 6.61667 330.833H19.85V390.383C19.85 394.037 22.8126 397 26.4667 397H52.9333C56.5874 397 59.55 394.037 59.55 390.383V357.3H337.45V390.383C337.45 394.037 340.413 397 344.067 397H370.533C374.187 397 377.15 394.037 377.15 390.383V330.833H390.383C394.037 330.833 397 327.871 397 324.217V33.0833C396.979 14.8213 382.179 0.0215042 363.917 0ZM46.3167 383.767H33.0833V357.3H46.3167V383.767ZM363.917 383.767H350.683V357.3H363.917V383.767ZM363.917 344.067H33.0833V330.833H363.917V344.067ZM383.767 317.6H13.2333V224.967H383.767V317.6ZM383.767 211.733H13.2333V119.1H383.767V211.733ZM383.767 105.867H13.2333V33.0833C13.2333 22.1203 22.1203 13.2333 33.0833 13.2333H363.917C374.88 13.2333 383.767 22.1203 383.767 33.0833V105.867Z" fill="black"/>
<path d="M198.5 277.9C209.463 277.9 218.35 269.013 218.35 258.05C218.35 247.087 209.463 238.2 198.5 238.2C187.537 238.2 178.65 247.087 178.65 258.05C178.65 269.013 187.537 277.9 198.5 277.9ZM198.5 251.433C202.154 251.433 205.117 254.396 205.117 258.05C205.117 261.704 202.154 264.667 198.5 264.667C194.846 264.667 191.884 261.704 191.884 258.05C191.884 254.396 194.846 251.433 198.5 251.433Z" fill="black"/>
<path d="M198.5 172.033C209.463 172.033 218.35 163.146 218.35 152.183C218.35 141.22 209.463 132.333 198.5 132.333C187.537 132.333 178.65 141.22 178.65 152.183C178.65 163.146 187.537 172.033 198.5 172.033ZM198.5 145.567C202.154 145.567 205.117 148.529 205.117 152.183C205.117 155.837 202.154 158.8 198.5 158.8C194.846 158.8 191.884 155.837 191.884 152.183C191.884 148.529 194.846 145.567 198.5 145.567Z" fill="black"/>
<path d="M198.5 26.4667C187.537 26.4667 178.65 35.3537 178.65 46.3167C178.65 57.2797 187.537 66.1667 198.5 66.1667C209.463 66.1667 218.35 57.2797 218.35 46.3167C218.35 35.3537 209.463 26.4667 198.5 26.4667ZM198.5 52.9333C194.846 52.9333 191.884 49.9707 191.884 46.3167C191.884 42.6626 194.846 39.7 198.5 39.7C202.154 39.7 205.117 42.6626 205.117 46.3167C205.117 49.9707 202.154 52.9333 198.5 52.9333Z" fill="black"/>
</svg>
