<svg width="397" height="397" viewBox="0 0 397 397" fill="none" xmlns="http://www.w3.org/2000/svg">
<g clip-path="url(#clip0)">
<path d="M359.191 79.5801L202.074 0.703307C200.211 -0.232592 198.016 -0.234918 196.152 0.696328L37.9008 79.5933C25.7915 85.5746 18.1454 97.9297 18.1965 111.436V303.495C18.1965 306.001 19.6124 308.292 21.8541 309.413L65.276 331.137C65.4962 331.228 65.7219 331.306 65.9506 331.372C66.5074 331.619 67.1075 331.752 67.7162 331.762C67.8938 331.777 68.0636 331.835 68.2419 331.835L68.3319 331.813C69.236 331.791 70.1253 331.581 70.9434 331.196C71.0248 331.159 71.114 331.176 71.1946 331.136L114.617 309.412C116.857 308.291 118.273 305.999 118.274 303.493V270.755L148.462 285.86V368.659C148.462 371.165 149.878 373.456 152.12 374.577L195.542 396.301C197.405 397.232 199.597 397.232 201.46 396.301L244.882 374.577C247.124 373.456 248.539 371.165 248.54 368.659V285.861L278.728 270.756V303.495C278.728 306.001 280.144 308.292 282.386 309.413L325.808 331.137C325.889 331.178 325.978 331.16 326.059 331.197C326.877 331.582 327.766 331.792 328.671 331.814L328.76 331.836C328.939 331.836 329.108 331.778 329.285 331.764C329.644 331.745 330 331.696 330.35 331.618C330.809 331.458 331.267 331.299 331.726 331.138L375.148 309.414C377.39 308.293 378.805 306.002 378.806 303.495V111.378C378.852 97.9096 371.248 85.5816 359.191 79.5801ZM105.04 267.29V299.405L74.8513 314.508V249.03L105.72 264.475C105.285 265.35 105.052 266.312 105.04 267.29ZM195.192 381.329L161.695 364.569V281.771C161.695 279.264 160.279 276.973 158.038 275.851L71.1938 232.403C69.1421 231.379 66.7074 231.489 64.7565 232.694C62.8064 233.9 61.6185 236.029 61.6177 238.321V314.51L31.4294 299.403V176.623L195.192 258.554V381.329ZM195.192 201.918V243.755L31.4294 161.824V111.436C31.3968 102.953 36.1981 95.1903 43.8031 91.4312L199.095 14.0145L353.253 91.4048H353.256C356.552 93.0688 359.383 95.526 361.493 98.5562L213.022 173.054C202.064 178.491 195.149 189.684 195.192 201.918ZM322.15 314.508L291.961 299.405V264.135L322.15 249.03V314.508ZM365.571 299.404L335.383 314.511V238.322C335.382 236.029 334.194 233.9 332.244 232.695C330.294 231.489 327.859 231.379 325.807 232.404L238.963 275.851C236.722 276.972 235.306 279.264 235.306 281.77V364.568L201.809 381.329V258.553L365.571 176.623V299.404ZM365.571 161.824L201.809 243.755V201.918C201.772 192.192 207.271 183.292 215.985 178.972L364.454 104.477C365.185 106.705 365.561 109.033 365.571 111.377V161.824Z" fill="black"/>
<path d="M178.269 170.198L62.4774 112.27C61.4198 111.738 60.1582 111.812 59.1696 112.463C58.1809 113.114 57.6157 114.245 57.6878 115.426C57.7599 116.608 58.4578 117.662 59.5177 118.188L175.309 176.116C175.768 176.347 176.273 176.466 176.786 176.465C178.321 176.467 179.656 175.412 180.009 173.919C180.363 172.425 179.642 170.884 178.269 170.198Z" fill="black"/>
</g>
<defs>
<clipPath id="clip0">
<rect width="397" height="397" fill="white"/>
</clipPath>
</defs>
</svg>
