<svg width="32" height="32" viewBox="0 0 32 32" fill="none" xmlns="http://www.w3.org/2000/svg">
<path d="M16 0C7.17725 0 0 7.17725 0 16C0 24.8228 7.17725 32 16 32C24.8228 32 32 24.8228 32 16C32 7.17725 24.8228 0 16 0Z" fill="#EB5757"/>
<path d="M16 32C7.17725 32 0 24.8228 0 16C0 7.17725 7.17725 0 16 0C24.8228 0 32 7.17725 32 16C32 24.8228 24.8228 32 16 32ZM16 2C8.28003 2 2 8.28003 2 16C2 23.72 8.28003 30 16 30C23.72 30 30 23.72 30 16C30 8.28003 23.72 2 16 2Z" fill="black"/>
<path d="M11.0508 21.9507C10.7947 21.9507 10.5386 21.8533 10.344 21.6572C9.95337 21.2666 9.95337 20.6333 10.344 20.2427L20.2439 10.3428C20.6348 9.9519 21.2681 9.9519 21.6587 10.3428C22.0493 10.7334 22.0493 11.3667 21.6587 11.7573L11.7585 21.6572C11.5613 21.8533 11.3054 21.9507 11.0508 21.9507V21.9507Z" fill="black"/>
<path d="M20.9492 21.9507C20.6934 21.9507 20.4373 21.8533 20.2427 21.6572L10.3428 11.7573C9.9519 11.3667 9.9519 10.7334 10.3428 10.3428C10.7334 9.9519 11.3667 9.9519 11.7573 10.3428L21.6572 20.2427C22.0481 20.6333 22.0481 21.2666 21.6572 21.6572C21.4614 21.8533 21.2053 21.9507 20.9492 21.9507Z" fill="black"/>
</svg>
