<svg width="16" height="16" viewBox="0 0 16 16" fill="none" xmlns="http://www.w3.org/2000/svg">
<path d="M14.7483 5.50091V5.22813C14.7483 3.81863 13.6028 2.67188 12.1947 2.67188H3.80525C2.39669 2.67188 1.25075 3.81859 1.25075 5.22813V5.50094C0.555969 5.65481 0 6.30394 0 7.03113C0 7.66972 0.336781 8.19419 0.893781 8.44797V13.0156C0.893781 13.1882 1.03369 13.3281 1.20628 13.3281H2.81491C2.9875 13.3281 3.12741 13.1882 3.12741 13.0156V12.0511H6.59644C6.76903 12.0511 6.90894 11.9112 6.90894 11.7386C6.90894 11.566 6.76903 11.4261 6.59644 11.4261H3.12741V10.5753H12.8726V11.4261H9.40269C9.23009 11.4261 9.09019 11.566 9.09019 11.7386C9.09019 11.9112 9.23009 12.0511 9.40269 12.0511H12.8726V13.0156C12.8726 13.1882 13.0125 13.3281 13.1851 13.3281H14.7937C14.9663 13.3281 15.1062 13.1882 15.1062 13.0156V8.44788C15.6632 8.19391 16 7.66944 16 7.03113C16 6.30387 15.4436 5.65472 14.7483 5.50091ZM3.80525 3.29688H12.1947C13.2582 3.29688 14.1233 4.16322 14.1233 5.22813V5.49784C13.4106 5.64316 12.8726 6.27541 12.8726 7.03113V8.60128C12.8474 8.58584 12.8217 8.57078 12.7951 8.55619C12.4359 8.35922 11.9623 8.24678 11.4614 8.23959C11.4584 8.23956 11.4554 8.23956 11.4524 8.23959C10.9512 8.24678 10.4772 8.35922 10.1179 8.55619C9.96341 8.64088 9.83322 8.74047 9.72787 8.85163C9.62262 8.74047 9.49253 8.64091 9.33816 8.55622C8.97903 8.35925 8.50525 8.24681 8.00406 8.23959C8.00106 8.23956 7.99809 8.23956 7.99506 8.23959C7.49422 8.24678 7.02053 8.35925 6.66134 8.55619C6.50691 8.64088 6.37675 8.74044 6.27144 8.85159C6.16619 8.74044 6.03609 8.64088 5.88172 8.55622C5.52259 8.35925 5.04881 8.24681 4.54759 8.23959C4.54459 8.23956 4.54162 8.23956 4.53862 8.23959C4.03744 8.24678 3.56362 8.35925 3.20453 8.55622C3.17809 8.57072 3.15247 8.58575 3.12741 8.60109V7.03109C3.12741 6.27531 2.589 5.64303 1.87575 5.49778V5.22809C1.87575 4.16322 2.74134 3.29688 3.80525 3.29688ZM3.12741 9.60922C3.12741 9.13981 3.85597 8.87559 4.54313 8.86459C5.23028 8.87559 5.95884 9.13981 5.95884 9.60922V9.95034H3.12741V9.60922ZM9.41528 9.95031H6.58388V9.60919C6.58388 9.15681 7.30288 8.87575 7.99959 8.86456C8.68675 8.87556 9.41528 9.13978 9.41528 9.60919V9.95031ZM12.8726 9.95031H10.0403V9.60919C10.0403 9.15681 10.7597 8.87575 11.4569 8.86456C12.1536 8.87575 12.8726 9.15681 12.8726 9.60919V9.95031H12.8726ZM2.50241 12.7031H1.51878V8.23191C1.51878 8.09372 1.42803 7.97194 1.29559 7.93244C0.869437 7.80534 0.625 7.47681 0.625 7.03113C0.625 6.58753 1.02625 6.09137 1.56325 6.09137C2.08109 6.09137 2.50241 6.51294 2.50241 7.03113V12.7031ZM14.7043 7.9325C14.5719 7.97206 14.4812 8.09381 14.4812 8.23194V12.7031H13.4976V7.03113C13.4976 6.51294 13.9185 6.09137 14.4358 6.09137C14.9733 6.09137 15.375 6.5875 15.375 7.03113C15.375 7.47656 15.1305 7.80512 14.7043 7.9325Z" fill="#333333"/>
<path d="M4.83987 6.72282C5.01247 6.72282 5.15237 6.58291 5.15237 6.41032V6.40853C5.15237 6.23594 5.01247 6.09691 4.83987 6.09691C4.66728 6.09691 4.52737 6.23769 4.52737 6.41028C4.52737 6.58288 4.66728 6.72282 4.83987 6.72282Z" fill="#333333"/>
<path d="M6.42015 6.72282C6.59274 6.72282 6.73265 6.58291 6.73265 6.41032V6.40853C6.73265 6.23594 6.59274 6.09691 6.42015 6.09691C6.24756 6.09691 6.10765 6.23769 6.10765 6.41028C6.10765 6.58288 6.24756 6.72282 6.42015 6.72282Z" fill="#333333"/>
<path d="M7.99957 6.72282C8.17217 6.72282 8.31207 6.58291 8.31207 6.41032V6.40853C8.31207 6.23594 8.17217 6.09691 7.99957 6.09691C7.82698 6.09691 7.68707 6.23769 7.68707 6.41028C7.68707 6.58288 7.82698 6.72282 7.99957 6.72282Z" fill="#333333"/>
<path d="M9.57985 6.72282C9.75244 6.72282 9.89235 6.58291 9.89235 6.41032V6.40853C9.89235 6.23594 9.75244 6.09691 9.57985 6.09691C9.40726 6.09691 9.26735 6.23769 9.26735 6.41028C9.26735 6.58288 9.40726 6.72282 9.57985 6.72282Z" fill="#333333"/>
<path d="M11.1593 6.72282C11.3319 6.72282 11.4718 6.58291 11.4718 6.41032V6.40853C11.4718 6.23594 11.3319 6.09691 11.1593 6.09691C10.9867 6.09691 10.8468 6.23769 10.8468 6.41028C10.8468 6.58288 10.9867 6.72282 11.1593 6.72282Z" fill="#333333"/>
<path d="M4.04973 4.96947C4.22232 4.96947 4.36223 4.82956 4.36223 4.65697V4.65431C4.36223 4.48172 4.22232 4.34312 4.04973 4.34312C3.87713 4.34312 3.73723 4.48437 3.73723 4.65694C3.73723 4.8295 3.87713 4.96947 4.04973 4.96947Z" fill="#333333"/>
<path d="M5.63 4.96947C5.8026 4.96947 5.9425 4.82956 5.9425 4.65697V4.65431C5.9425 4.48172 5.8026 4.34312 5.63 4.34312C5.45741 4.34312 5.3175 4.48437 5.3175 4.65694C5.3175 4.8295 5.45741 4.96947 5.63 4.96947Z" fill="#333333"/>
<path d="M7.20941 4.96947C7.38201 4.96947 7.52191 4.82956 7.52191 4.65697V4.65431C7.52191 4.48172 7.38201 4.34312 7.20941 4.34312C7.03682 4.34312 6.89691 4.48437 6.89691 4.65694C6.89691 4.8295 7.03682 4.96947 7.20941 4.96947Z" fill="#333333"/>
<path d="M8.7897 4.96947C8.9623 4.96947 9.1022 4.82956 9.1022 4.65697V4.65431C9.1022 4.48172 8.9623 4.34312 8.7897 4.34312C8.61711 4.34312 8.4772 4.48437 8.4772 4.65694C8.4772 4.8295 8.61711 4.96947 8.7897 4.96947Z" fill="#333333"/>
<path d="M10.37 4.96947C10.5426 4.96947 10.6825 4.82956 10.6825 4.65697V4.65431C10.6825 4.48172 10.5426 4.34312 10.37 4.34312C10.1974 4.34312 10.0575 4.48437 10.0575 4.65694C10.0575 4.8295 10.1974 4.96947 10.37 4.96947Z" fill="#333333"/>
<path d="M11.9494 4.96947C12.122 4.96947 12.2619 4.82956 12.2619 4.65697V4.65431C12.2619 4.48172 12.122 4.34312 11.9494 4.34312C11.7768 4.34312 11.6369 4.48437 11.6369 4.65694C11.6369 4.8295 11.7768 4.96947 11.9494 4.96947Z" fill="#333333"/>
<path d="M7.99957 11.4261C7.82698 11.4261 7.68707 11.566 7.68707 11.7386C7.68707 11.9112 7.82698 12.0511 7.99957 12.0511H8.00135C8.17395 12.0511 8.31298 11.9112 8.31298 11.7386C8.31298 11.566 8.17217 11.4261 7.99957 11.4261Z" fill="#333333"/>
</svg>
