<svg width="32" height="32" viewBox="0 0 32 32" fill="none" xmlns="http://www.w3.org/2000/svg">
<path d="M16 32C24.8366 32 32 24.8366 32 16C32 7.16344 24.8366 0 16 0C7.16344 0 0 7.16344 0 16C0 24.8366 7.16344 32 16 32Z" fill="#6F3FAA"/>
<path d="M24.4641 11.2453L24.4589 11.2241C24.0314 9.49583 22.104 7.64133 20.334 7.25552L20.3141 7.25139C17.4512 6.70527 14.5484 6.70527 11.6862 7.25139L11.6656 7.25552C9.89621 7.64133 7.96878 9.49595 7.54071 11.2241L7.53596 11.2453C7.00746 13.6588 7.00746 16.1066 7.53596 18.5201L7.54071 18.5413C7.95059 20.1958 9.7344 21.9651 11.4383 22.4517V24.381C11.4383 25.0793 12.2893 25.4222 12.7732 24.9183L14.7278 22.8865C15.1518 22.9101 15.576 22.9234 16.0001 22.9234C17.4412 22.9234 18.8829 22.7871 20.314 22.5141L20.334 22.51C22.104 22.1241 24.0313 20.2695 24.4588 18.5413L24.4641 18.5202C24.9926 16.1066 24.9926 13.659 24.4641 11.2453ZM22.9172 18.1702C22.6318 19.2978 21.1684 20.6995 20.0057 20.9585C18.4835 21.248 16.9492 21.3717 15.4164 21.3293C15.3859 21.3284 15.3566 21.3403 15.3354 21.3621C15.1178 21.5854 13.9082 22.8273 13.9082 22.8273L12.3902 24.3853C12.2792 24.501 12.0842 24.4222 12.0842 24.2625V21.0665C12.0842 21.0137 12.0465 20.9689 11.9946 20.9586C11.9943 20.9585 11.9941 20.9585 11.9938 20.9585C10.831 20.6995 9.36815 19.2977 9.08221 18.1701C8.60652 15.9885 8.60652 13.7769 9.08221 11.5953C9.36815 10.4677 10.831 9.06595 11.9938 8.80695C14.6523 8.30133 17.3478 8.30133 20.0057 8.80695C21.169 9.06595 22.6318 10.4677 22.9173 11.5953C23.3935 13.777 23.3935 15.9886 22.9172 18.1702Z" fill="white"/>
<path d="M18.5293 19.6456C18.3506 19.5913 18.1803 19.5548 18.022 19.4893C16.3825 18.8091 14.8738 17.9316 13.6787 16.5865C12.9991 15.8216 12.4672 14.9581 12.0175 14.0442C11.8043 13.6108 11.6246 13.1605 11.4414 12.713C11.2744 12.305 11.5204 11.8835 11.7794 11.576C12.0225 11.2874 12.3353 11.0667 12.674 10.9039C12.9384 10.7769 13.1992 10.8501 13.3923 11.0742C13.8097 11.5587 14.1932 12.0679 14.5035 12.6296C14.6945 12.975 14.6421 13.3973 14.296 13.6323C14.2119 13.6894 14.1353 13.7566 14.057 13.8211C13.9882 13.8776 13.9236 13.9348 13.8765 14.0113C13.7904 14.1514 13.7863 14.3167 13.8417 14.469C14.2683 15.6416 14.9875 16.5534 16.1678 17.0446C16.3567 17.1232 16.5463 17.2146 16.764 17.1893C17.1283 17.1468 17.2463 16.747 17.5017 16.5382C17.7513 16.3341 18.0703 16.3314 18.3391 16.5016C18.608 16.6718 18.8687 16.8544 19.1278 17.0391C19.3822 17.2204 19.6353 17.3976 19.8699 17.6043C20.0955 17.8029 20.1732 18.0636 20.0462 18.3331C19.8137 18.8269 19.4752 19.2376 18.9872 19.4999C18.8493 19.5738 18.6847 19.5977 18.5293 19.6456C18.3506 19.5913 18.6847 19.5977 18.5293 19.6456Z" fill="white"/>
<path d="M16.0044 10.3392C18.1487 10.3994 19.91 11.8224 20.2874 13.9424C20.3517 14.3037 20.3746 14.6729 20.4032 15.0396C20.4153 15.1938 20.3279 15.3403 20.1616 15.3424C19.9897 15.3444 19.9124 15.2005 19.9011 15.0465C19.8791 14.7414 19.8637 14.4348 19.8217 14.1323C19.5997 12.5349 18.326 11.2133 16.736 10.9297C16.4967 10.887 16.2519 10.8759 16.0095 10.8504C15.8563 10.8344 15.6557 10.8251 15.6217 10.6346C15.5933 10.4749 15.7281 10.3478 15.8801 10.3396C15.9213 10.3372 15.9629 10.3391 16.0044 10.3392C18.1488 10.3994 15.9629 10.3391 16.0044 10.3392Z" fill="white"/>
<path d="M19.2632 14.5638C19.2597 14.5906 19.2578 14.6535 19.2421 14.7128C19.1852 14.928 18.8587 14.9549 18.7837 14.7378C18.7613 14.6733 18.758 14.5999 18.7579 14.5306C18.7572 14.0764 18.6585 13.6227 18.4294 13.2275C18.194 12.8213 17.8342 12.48 17.4124 12.2733C17.1573 12.1484 16.8815 12.0708 16.6018 12.0246C16.4797 12.0043 16.3562 11.9921 16.2333 11.975C16.0845 11.9543 16.005 11.8595 16.0122 11.7129C16.0187 11.5755 16.1192 11.4766 16.2689 11.4851C16.761 11.513 17.2363 11.6195 17.6739 11.8511C18.5635 12.3223 19.0718 13.0659 19.2202 14.059C19.2269 14.1041 19.2376 14.1486 19.241 14.1937C19.2494 14.3051 19.2547 14.4166 19.2632 14.5638C19.2597 14.5904 19.2547 14.4166 19.2632 14.5638Z" fill="white"/>
<path d="M17.9295 14.5117C17.7501 14.515 17.6541 14.4156 17.6356 14.2512C17.6227 14.1366 17.6125 14.0204 17.5851 13.9087C17.5312 13.6889 17.4144 13.4853 17.2296 13.3506C17.1423 13.287 17.0434 13.2407 16.9398 13.2107C16.8082 13.1727 16.6715 13.1832 16.5403 13.151C16.3977 13.1161 16.3189 13.0006 16.3413 12.8669C16.3617 12.7452 16.4801 12.6502 16.6131 12.6599C17.4445 12.7199 18.0387 13.1497 18.1235 14.1284C18.1296 14.1975 18.1366 14.2704 18.1212 14.3366C18.0949 14.4495 18.0111 14.5062 17.9295 14.5117C17.7501 14.5149 18.0111 14.5062 17.9295 14.5117Z" fill="white"/>
<path d="M18.5294 19.6455C18.6848 19.5977 18.3506 19.5912 18.5294 19.6455V19.6455Z" fill="white"/>
<path d="M16.0099 10.3393C16.0081 10.3393 16.0064 10.3392 16.0046 10.3392C16.0028 10.339 16.0051 10.3392 16.0099 10.3393Z" fill="white"/>
<path d="M16.0045 10.3391C16.0063 10.3391 16.0081 10.3393 16.0099 10.3393C16.1289 10.3435 18.0644 10.3969 16.0045 10.3391Z" fill="white"/>
<path d="M19.2632 14.5638C19.2547 14.4166 19.2597 14.5904 19.2632 14.5638V14.5638Z" fill="white"/>
<path d="M17.9295 14.5117C17.9323 14.5115 17.935 14.5101 17.9377 14.5098C17.9301 14.5098 17.9185 14.51 17.9066 14.5104C17.9143 14.5106 17.9214 14.5118 17.9295 14.5117Z" fill="white"/>
<path d="M17.9295 14.5118C17.9215 14.5119 17.9143 14.5107 17.9066 14.5105C17.8678 14.5116 17.8277 14.5136 17.9295 14.5118Z" fill="white"/>
<path d="M17.9377 14.5098C17.9349 14.5101 17.9323 14.5115 17.9296 14.5117C17.9506 14.5103 17.9487 14.5098 17.9377 14.5098Z" fill="white"/>
</svg>
