<svg width="32" height="32" viewBox="0 0 32 32" fill="none" xmlns="http://www.w3.org/2000/svg">
<path d="M16 32C24.8366 32 32 24.8366 32 16C32 7.16344 24.8366 0 16 0C7.16344 0 0 7.16344 0 16C0 24.8366 7.16344 32 16 32Z" fill="#4D76A1"/>
<path fillRule="evenodd" clipRule="evenodd" d="M15.3956 23.0175H16.6514C16.6514 23.0175 17.0308 22.9759 17.2244 22.7671C17.4027 22.5755 17.397 22.2155 17.397 22.2155C17.397 22.2155 17.3725 20.5305 18.1545 20.2823C18.9255 20.0379 19.9154 21.9109 20.9648 22.6311C21.7582 23.1761 22.3612 23.0566 22.3612 23.0566L25.1668 23.0175C25.1668 23.0175 26.6345 22.9271 25.9386 21.7732C25.8816 21.6787 25.5333 20.9195 23.8526 19.3594C22.0933 17.7265 22.3289 17.9906 24.4481 15.1661C25.7387 13.446 26.2546 12.3958 26.0935 11.9461C25.9398 11.5177 24.9906 11.6309 24.9906 11.6309L21.8315 11.6506C21.8315 11.6506 21.5974 11.6186 21.4237 11.7225C21.254 11.8243 21.1447 12.0616 21.1447 12.0616C21.1447 12.0616 20.6447 13.3927 19.9779 14.5247C18.5712 16.9134 18.0088 17.0394 17.7789 16.8911C17.2441 16.5454 17.3776 15.5024 17.3776 14.7614C17.3776 12.4466 17.7287 11.4814 16.6939 11.2316C16.3505 11.1486 16.0978 11.0938 15.2197 11.085C14.0925 11.0733 13.1384 11.0884 12.5983 11.3531C12.2389 11.5291 11.9616 11.9212 12.1305 11.9438C12.3393 11.9717 12.8122 12.0713 13.0629 12.4127C13.3866 12.853 13.3752 13.8422 13.3752 13.8422C13.3752 13.8422 13.5611 16.5671 12.9408 16.9057C12.515 17.1378 11.9308 16.6638 10.6768 14.4967C10.0342 13.3867 9.54902 12.1597 9.54902 12.1597C9.54902 12.1597 9.45547 11.9304 9.28861 11.8077C9.08611 11.6591 8.80318 11.6118 8.80318 11.6118L5.80129 11.6315C5.80129 11.6315 5.35065 11.644 5.18522 11.84C5.03805 12.0142 5.17353 12.3747 5.17353 12.3747C5.17353 12.3747 7.5237 17.8731 10.1848 20.644C12.6248 23.1844 15.3956 23.0175 15.3956 23.0175Z" fill="white"/>
</svg>
